<svg width="52" height="52" viewBox="0 0 52 52" fill="none" xmlns="http://www.w3.org/2000/svg">
<path d="M32.8156 5.43622C33.5418 6.16237 34.5266 6.57031 35.5536 6.57031H41.2642C43.4027 6.57031 45.1362 8.30389 45.1362 10.4424V16.1531C45.1362 17.18 45.5441 18.1648 46.2702 18.8909L50.4172 23.0384C51.9291 24.5506 51.9291 27.0021 50.417 28.5142L46.2703 32.6608C45.5442 33.387 45.1362 34.3718 45.1362 35.3988V41.419C45.1362 43.5574 43.4027 45.291 41.2642 45.291H35.244C34.2171 45.291 33.2322 45.699 32.506 46.4251L28.5138 50.4173C27.0017 51.9295 24.5501 51.9295 23.0379 50.4173L19.0457 46.4251C18.3196 45.699 17.3347 45.291 16.3078 45.291H10.2885C8.15008 45.291 6.4165 43.5574 6.4165 41.419V35.3999C6.4165 34.3729 6.00849 33.3879 5.28224 32.6618L1.13428 28.5143C-0.378004 27.0022 -0.378081 24.5504 1.13411 23.0382L5.28241 18.89C6.00856 18.1638 6.4165 17.1789 6.4165 16.152V10.4424C6.4165 8.30389 8.15008 6.57031 10.2885 6.57031H15.9982C17.0251 6.57031 18.01 6.16237 18.7361 5.43622L23.0379 1.13443C24.5501 -0.377693 27.0017 -0.377694 28.5138 1.13443L32.8156 5.43622Z" fill="#1CB5B3"/>
<mask id="path-2-inside-1_10197_3943" fill="white">
<path fill-rule="evenodd" clip-rule="evenodd" d="M32.2077 7.32831C32.8663 7.9869 33.7595 8.35689 34.6909 8.35689H39.869C41.8085 8.35689 43.3808 9.92917 43.3808 11.8687V17.0468C43.3808 17.9782 43.7508 18.8714 44.4094 19.53L48.172 23.2926C49.5435 24.6641 49.5435 26.8876 48.172 28.259L44.4094 32.0217C43.7508 32.6803 43.3808 33.5735 43.3808 34.5049V39.9633C43.3808 41.9028 41.8085 43.4751 39.869 43.4751H34.4106C33.4793 43.4751 32.586 43.845 31.9274 44.5036L28.3064 48.1247C26.935 49.4961 24.7114 49.4961 23.34 48.1247L19.719 44.5036C19.0604 43.845 18.1671 43.4751 17.2358 43.4751H11.7754C9.83591 43.4751 8.26363 41.9028 8.26363 39.9633V34.5029C8.26363 33.5715 7.89364 32.6783 7.23505 32.0197L3.47438 28.259C2.10294 26.8876 2.10294 24.6641 3.47438 23.2926L7.23505 19.532C7.89364 18.8734 8.26363 17.9801 8.26363 17.0487V11.8687C8.26363 9.92917 9.83591 8.35689 11.7754 8.35689H16.9555C17.8869 8.35689 18.7801 7.9869 19.4387 7.32831L23.34 3.42702C24.7114 2.05558 26.935 2.05558 28.3064 3.42702L32.2077 7.32831Z"/>
</mask>
<path fill-rule="evenodd" clip-rule="evenodd" d="M32.2077 7.32831C32.8663 7.9869 33.7595 8.35689 34.6909 8.35689H39.869C41.8085 8.35689 43.3808 9.92917 43.3808 11.8687V17.0468C43.3808 17.9782 43.7508 18.8714 44.4094 19.53L48.172 23.2926C49.5435 24.6641 49.5435 26.8876 48.172 28.259L44.4094 32.0217C43.7508 32.6803 43.3808 33.5735 43.3808 34.5049V39.9633C43.3808 41.9028 41.8085 43.4751 39.869 43.4751H34.4106C33.4793 43.4751 32.586 43.845 31.9274 44.5036L28.3064 48.1247C26.935 49.4961 24.7114 49.4961 23.34 48.1247L19.719 44.5036C19.0604 43.845 18.1671 43.4751 17.2358 43.4751H11.7754C9.83591 43.4751 8.26363 41.9028 8.26363 39.9633V34.5029C8.26363 33.5715 7.89364 32.6783 7.23505 32.0197L3.47438 28.259C2.10294 26.8876 2.10294 24.6641 3.47438 23.2926L7.23505 19.532C7.89364 18.8734 8.26363 17.9801 8.26363 17.0487V11.8687C8.26363 9.92917 9.83591 8.35689 11.7754 8.35689H16.9555C17.8869 8.35689 18.7801 7.9869 19.4387 7.32831L23.34 3.42702C24.7114 2.05558 26.935 2.05558 28.3064 3.42702L32.2077 7.32831Z" fill="#1CB5B3"/>
<path d="M28.3064 3.42702L27.4787 4.25475L28.3064 3.42702ZM19.4387 7.32831L18.611 6.50057L19.4387 7.32831ZM7.23505 19.532L6.40731 18.7042L7.23505 19.532ZM3.47438 23.2926L4.30212 24.1204L3.47438 23.2926ZM7.23505 32.0197L6.40731 32.8475L7.23505 32.0197ZM19.719 44.5036L20.5467 43.6759L19.719 44.5036ZM28.3064 48.1247L29.1342 48.9524L28.3064 48.1247ZM23.34 48.1247L22.5122 48.9524L23.34 48.1247ZM31.9274 44.5036L31.0997 43.6759L31.9274 44.5036ZM32.2077 7.32831L33.0354 6.50057L32.2077 7.32831ZM34.6909 8.35689V9.52749H39.869V8.35689V7.18629H34.6909V8.35689ZM43.3808 11.8687H42.2102V17.0468H43.3808H44.5514V11.8687H43.3808ZM44.4094 19.53L43.5817 20.3577L47.3443 24.1204L48.172 23.2926L48.9998 22.4649L45.2371 18.7023L44.4094 19.53ZM48.172 28.259L47.3443 27.4313L43.5817 31.1939L44.4094 32.0217L45.2371 32.8494L48.9998 29.0868L48.172 28.259ZM43.3808 34.5049H42.2102V39.9633H43.3808H44.5514V34.5049H43.3808ZM39.869 43.4751V42.3045H34.4106V43.4751V44.6457H39.869V43.4751ZM31.9274 44.5036L31.0997 43.6759L27.4787 47.2969L28.3064 48.1247L29.1342 48.9524L32.7552 45.3314L31.9274 44.5036ZM23.34 48.1247L24.1677 47.2969L20.5467 43.6759L19.719 44.5036L18.8912 45.3314L22.5122 48.9524L23.34 48.1247ZM17.2358 43.4751V42.3045H11.7754V43.4751V44.6457H17.2358V43.4751ZM8.26363 39.9633H9.43423V34.5029H8.26363H7.09303V39.9633H8.26363ZM7.23505 32.0197L8.06279 31.192L4.30212 27.4313L3.47438 28.259L2.64664 29.0868L6.40731 32.8475L7.23505 32.0197ZM3.47438 23.2926L4.30212 24.1204L8.06279 20.3597L7.23505 19.532L6.40731 18.7042L2.64664 22.4649L3.47438 23.2926ZM8.26363 17.0487H9.43423V11.8687H8.26363H7.09303V17.0487H8.26363ZM11.7754 8.35689V9.52749H16.9555V8.35689V7.18629H11.7754V8.35689ZM19.4387 7.32831L20.2664 8.15605L24.1677 4.25476L23.34 3.42702L22.5122 2.59928L18.611 6.50057L19.4387 7.32831ZM28.3064 3.42702L27.4787 4.25475L31.38 8.15605L32.2077 7.32831L33.0354 6.50057L29.1342 2.59928L28.3064 3.42702ZM23.34 3.42702L24.1677 4.25476C25.082 3.34046 26.5644 3.34046 27.4787 4.25475L28.3064 3.42702L29.1342 2.59928C27.3056 0.770691 24.3408 0.770695 22.5122 2.59928L23.34 3.42702ZM16.9555 8.35689V9.52749C18.1973 9.52749 19.3883 9.03417 20.2664 8.15605L19.4387 7.32831L18.611 6.50057C18.1719 6.93963 17.5764 7.18629 16.9555 7.18629V8.35689ZM8.26363 11.8687H9.43423C9.43423 10.5757 10.4824 9.52749 11.7754 9.52749V8.35689V7.18629C9.18941 7.18629 7.09303 9.28267 7.09303 11.8687H8.26363ZM7.23505 19.532L8.06279 20.3597C8.94091 19.4816 9.43423 18.2906 9.43423 17.0487H8.26363H7.09303C7.09303 17.6697 6.84637 18.2652 6.40731 18.7042L7.23505 19.532ZM3.47438 28.259L4.30212 27.4313C3.38783 26.517 3.38783 25.0347 4.30212 24.1204L3.47438 23.2926L2.64664 22.4649C0.818057 24.2935 0.818055 27.2582 2.64664 29.0868L3.47438 28.259ZM8.26363 34.5029H9.43423C9.43423 33.2611 8.94091 32.0701 8.06279 31.192L7.23505 32.0197L6.40731 32.8475C6.84637 33.2865 7.09303 33.882 7.09303 34.5029H8.26363ZM11.7754 43.4751V42.3045C10.4824 42.3045 9.43423 41.2563 9.43423 39.9633H8.26363H7.09303C7.09303 42.5493 9.18941 44.6457 11.7754 44.6457V43.4751ZM19.719 44.5036L20.5467 43.6759C19.6686 42.7978 18.4776 42.3045 17.2358 42.3045V43.4751V44.6457C17.8567 44.6457 18.4522 44.8923 18.8912 45.3314L19.719 44.5036ZM28.3064 48.1247L27.4787 47.2969C26.5644 48.2112 25.082 48.2112 24.1677 47.2969L23.34 48.1247L22.5122 48.9524C24.3408 50.781 27.3056 50.781 29.1342 48.9524L28.3064 48.1247ZM34.4106 43.4751V42.3045C33.1688 42.3045 31.9778 42.7978 31.0997 43.6759L31.9274 44.5036L32.7552 45.3314C33.1942 44.8923 33.7897 44.6457 34.4106 44.6457V43.4751ZM43.3808 39.9633H42.2102C42.2102 41.2563 41.162 42.3045 39.869 42.3045V43.4751V44.6457C42.455 44.6457 44.5514 42.5493 44.5514 39.9633H43.3808ZM44.4094 32.0217L43.5817 31.1939C42.7035 32.072 42.2102 33.263 42.2102 34.5049H43.3808H44.5514C44.5514 33.884 44.7981 33.2885 45.2371 32.8494L44.4094 32.0217ZM48.172 23.2926L47.3443 24.1204C48.2586 25.0347 48.2586 26.517 47.3443 27.4313L48.172 28.259L48.9998 29.0868C50.8283 27.2582 50.8283 24.2935 48.9998 22.4649L48.172 23.2926ZM43.3808 17.0468H42.2102C42.2102 18.2886 42.7035 19.4796 43.5817 20.3577L44.4094 19.53L45.2371 18.7023C44.7981 18.2632 44.5514 17.6677 44.5514 17.0468H43.3808ZM39.869 8.35689V9.52749C41.162 9.52749 42.2102 10.5757 42.2102 11.8687H43.3808H44.5514C44.5514 9.28267 42.455 7.18629 39.869 7.18629V8.35689ZM34.6909 8.35689V7.18629C34.07 7.18629 33.4745 6.93963 33.0354 6.50057L32.2077 7.32831L31.38 8.15605C32.2581 9.03416 33.4491 9.52749 34.6909 9.52749V8.35689Z" fill="white" mask="url(#path-2-inside-1_10197_3943)"/>
<path d="M25.0837 16.5L32.7186 19.7302V25.8968C32.7186 30.5952 29.1948 33.8254 25.0837 35C20.9725 33.8254 17.4487 30.5952 17.4487 25.8968V19.7302L25.0837 16.5Z" stroke="white" stroke-width="1.7619" stroke-linejoin="round"/>
<path d="M21.854 25.8971L24.2032 28.2463L28.9016 23.5479" stroke="white" stroke-width="1.7619" stroke-linecap="round" stroke-linejoin="round"/>
</svg>
