<svg width="52" height="52" viewBox="0 0 52 52" fill="none" xmlns="http://www.w3.org/2000/svg">
<path d="M32.8156 5.43622C33.5418 6.16237 34.5266 6.57031 35.5536 6.57031H41.2642C43.4027 6.57031 45.1362 8.30389 45.1362 10.4424V16.1531C45.1362 17.18 45.5441 18.1648 46.2702 18.8909L50.4172 23.0384C51.9291 24.5506 51.9291 27.0021 50.417 28.5142L46.2703 32.6608C45.5442 33.387 45.1362 34.3718 45.1362 35.3988V41.419C45.1362 43.5574 43.4027 45.291 41.2642 45.291H35.244C34.2171 45.291 33.2322 45.699 32.506 46.4251L28.5138 50.4173C27.0017 51.9295 24.5501 51.9295 23.0379 50.4173L19.0457 46.4251C18.3196 45.699 17.3347 45.291 16.3078 45.291H10.2885C8.15008 45.291 6.4165 43.5574 6.4165 41.419V35.3999C6.4165 34.3729 6.00849 33.3879 5.28224 32.6618L1.13428 28.5143C-0.378004 27.0022 -0.378081 24.5504 1.13411 23.0382L5.28241 18.89C6.00856 18.1638 6.4165 17.1789 6.4165 16.152V10.4424C6.4165 8.30389 8.15008 6.57031 10.2885 6.57031H15.9982C17.0251 6.57031 18.01 6.16237 18.7361 5.43622L23.0379 1.13443C24.5501 -0.377693 27.0017 -0.377694 28.5138 1.13443L32.8156 5.43622Z" fill="#1CB5B3"/>
<mask id="path-2-inside-1_10197_3904" fill="white">
<path fill-rule="evenodd" clip-rule="evenodd" d="M31.8513 6.97186C32.5098 7.63045 33.4031 8.00044 34.3345 8.00044H39.6063C41.5458 8.00044 43.1181 9.57273 43.1181 11.5122V16.7841C43.1181 17.7155 43.4881 18.6087 44.1467 19.2673L48.172 23.2926C49.5435 24.6641 49.5435 26.8876 48.172 28.259L44.1467 32.2844C43.4881 32.943 43.1181 33.8362 43.1181 34.7676V39.6068C43.1181 41.5463 41.5458 43.1186 39.6063 43.1186H34.7671C33.8357 43.1186 32.9425 43.4886 32.2839 44.1472L28.3064 48.1247C26.935 49.4961 24.7114 49.4961 23.34 48.1247L19.3625 44.1472C18.7039 43.4886 17.8107 43.1186 16.8793 43.1186H11.5127C9.57322 43.1186 8.00093 41.5463 8.00093 39.6068V34.2402C8.00093 33.3088 7.63094 32.4156 6.97235 31.757L3.47438 28.2591C2.10294 26.8876 2.10294 24.6641 3.47438 23.2926L6.97235 19.7947C7.63094 19.1361 8.00093 18.2428 8.00093 17.3114V11.5122C8.00093 9.57273 9.57322 8.00044 11.5127 8.00044H17.3119C18.2433 8.00044 19.1365 7.63045 19.7951 6.97186L23.34 3.42702C24.7114 2.05558 26.935 2.05558 28.3064 3.42702L31.8513 6.97186Z"/>
</mask>
<path fill-rule="evenodd" clip-rule="evenodd" d="M31.8513 6.97186C32.5098 7.63045 33.4031 8.00044 34.3345 8.00044H39.6063C41.5458 8.00044 43.1181 9.57273 43.1181 11.5122V16.7841C43.1181 17.7155 43.4881 18.6087 44.1467 19.2673L48.172 23.2926C49.5435 24.6641 49.5435 26.8876 48.172 28.259L44.1467 32.2844C43.4881 32.943 43.1181 33.8362 43.1181 34.7676V39.6068C43.1181 41.5463 41.5458 43.1186 39.6063 43.1186H34.7671C33.8357 43.1186 32.9425 43.4886 32.2839 44.1472L28.3064 48.1247C26.935 49.4961 24.7114 49.4961 23.34 48.1247L19.3625 44.1472C18.7039 43.4886 17.8107 43.1186 16.8793 43.1186H11.5127C9.57322 43.1186 8.00093 41.5463 8.00093 39.6068V34.2402C8.00093 33.3088 7.63094 32.4156 6.97235 31.757L3.47438 28.2591C2.10294 26.8876 2.10294 24.6641 3.47438 23.2926L6.97235 19.7947C7.63094 19.1361 8.00093 18.2428 8.00093 17.3114V11.5122C8.00093 9.57273 9.57322 8.00044 11.5127 8.00044H17.3119C18.2433 8.00044 19.1365 7.63045 19.7951 6.97186L23.34 3.42702C24.7114 2.05558 26.935 2.05558 28.3064 3.42702L31.8513 6.97186Z" fill="#1CB5B3"/>
<path d="M19.7951 6.97186L18.9674 6.14413L19.7951 6.97186ZM6.97235 19.7947L6.14461 18.9669L6.97235 19.7947ZM6.97235 31.757L6.14461 32.5848L6.97235 31.757ZM19.3625 44.1472L20.1903 43.3195L19.3625 44.1472ZM23.34 48.1247L24.1677 47.2969L23.34 48.1247ZM44.1467 32.2844L43.319 31.4566L44.1467 32.2844ZM34.3345 8.00044V9.17104H39.6063V8.00044V6.82985H34.3345V8.00044ZM43.1181 11.5122H41.9475V16.7841H43.1181H44.2887V11.5122H43.1181ZM44.1467 19.2673L43.319 20.095L47.3443 24.1204L48.172 23.2926L48.9998 22.4649L44.9744 18.4396L44.1467 19.2673ZM48.172 28.259L47.3443 27.4313L43.319 31.4566L44.1467 32.2844L44.9744 33.1121L48.9998 29.0868L48.172 28.259ZM43.1181 34.7676H41.9475V39.6068H43.1181H44.2887V34.7676H43.1181ZM39.6063 43.1186V41.948H34.7671V43.1186V44.2892H39.6063V43.1186ZM32.2839 44.1472L31.4561 43.3195L27.4787 47.2969L28.3064 48.1247L29.1342 48.9524L33.1116 44.9749L32.2839 44.1472ZM23.34 48.1247L24.1677 47.2969L20.1903 43.3195L19.3625 44.1472L18.5348 44.9749L22.5122 48.9524L23.34 48.1247ZM16.8793 43.1186V41.948H11.5127V43.1186V44.2892H16.8793V43.1186ZM8.00093 39.6068H9.17153V34.2402H8.00093H6.83034V39.6068H8.00093ZM6.97235 31.757L7.80009 30.9293L4.30212 27.4313L3.47438 28.2591L2.64664 29.0868L6.14461 32.5848L6.97235 31.757ZM3.47438 23.2926L4.30212 24.1204L7.80009 20.6224L6.97235 19.7947L6.14461 18.9669L2.64664 22.4649L3.47438 23.2926ZM8.00093 17.3114H9.17153V11.5122H8.00093H6.83034V17.3114H8.00093ZM11.5127 8.00044V9.17104H17.3119V8.00044V6.82985H11.5127V8.00044ZM19.7951 6.97186L20.6229 7.7996L24.1677 4.25476L23.34 3.42702L22.5122 2.59928L18.9674 6.14413L19.7951 6.97186ZM28.3064 3.42702L27.4787 4.25475L31.0235 7.7996L31.8513 6.97186L32.679 6.14412L29.1341 2.59928L28.3064 3.42702ZM23.34 3.42702L24.1677 4.25476C25.082 3.34046 26.5644 3.34046 27.4787 4.25475L28.3064 3.42702L29.1341 2.59928C27.3056 0.770691 24.3408 0.770695 22.5122 2.59928L23.34 3.42702ZM17.3119 8.00044V9.17104C18.5538 9.17104 19.7448 8.67772 20.6229 7.7996L19.7951 6.97186L18.9674 6.14413C18.5283 6.58319 17.9328 6.82985 17.3119 6.82985V8.00044ZM8.00093 11.5122H9.17153C9.17153 10.2192 10.2197 9.17104 11.5127 9.17104V8.00044V6.82985C8.92671 6.82985 6.83034 8.92622 6.83034 11.5122H8.00093ZM6.97235 19.7947L7.80009 20.6224C8.67821 19.7443 9.17153 18.5533 9.17153 17.3114H8.00093H6.83034C6.83034 17.9324 6.58367 18.5279 6.14461 18.9669L6.97235 19.7947ZM3.47438 28.2591L4.30212 27.4313C3.38783 26.517 3.38783 25.0347 4.30212 24.1204L3.47438 23.2926L2.64664 22.4649C0.818054 24.2935 0.818058 27.2582 2.64664 29.0868L3.47438 28.2591ZM8.00093 34.2402H9.17153C9.17153 32.9984 8.67821 31.8074 7.80009 30.9293L6.97235 31.757L6.14461 32.5848C6.58367 33.0238 6.83034 33.6193 6.83034 34.2402H8.00093ZM11.5127 43.1186V41.948C10.2197 41.948 9.17153 40.8998 9.17153 39.6068H8.00093H6.83034C6.83034 42.1928 8.92671 44.2892 11.5127 44.2892V43.1186ZM19.3625 44.1472L20.1903 43.3195C19.3121 42.4413 18.1212 41.948 16.8793 41.948V43.1186V44.2892C17.5002 44.2892 18.0957 44.5359 18.5348 44.9749L19.3625 44.1472ZM28.3064 48.1247L27.4787 47.2969C26.5644 48.2112 25.082 48.2112 24.1677 47.2969L23.34 48.1247L22.5122 48.9524C24.3408 50.781 27.3056 50.781 29.1342 48.9524L28.3064 48.1247ZM34.7671 43.1186V41.948C33.5252 41.948 32.3343 42.4413 31.4561 43.3195L32.2839 44.1472L33.1116 44.9749C33.5507 44.5359 34.1462 44.2892 34.7671 44.2892V43.1186ZM43.1181 39.6068H41.9475C41.9475 40.8998 40.8993 41.948 39.6063 41.948V43.1186V44.2892C42.1923 44.2892 44.2887 42.1928 44.2887 39.6068H43.1181ZM44.1467 32.2844L43.319 31.4566C42.4408 32.3347 41.9475 33.5257 41.9475 34.7676H43.1181H44.2887C44.2887 34.1467 44.5354 33.5512 44.9744 33.1121L44.1467 32.2844ZM48.172 23.2926L47.3443 24.1204C48.2586 25.0347 48.2586 26.517 47.3443 27.4313L48.172 28.259L48.9998 29.0868C50.8283 27.2582 50.8283 24.2935 48.9998 22.4649L48.172 23.2926ZM43.1181 16.7841H41.9475C41.9475 18.0259 42.4408 19.2169 43.319 20.095L44.1467 19.2673L44.9744 18.4396C44.5354 18.0005 44.2887 17.405 44.2887 16.7841H43.1181ZM39.6063 8.00044V9.17104C40.8993 9.17104 41.9475 10.2192 41.9475 11.5122H43.1181H44.2887C44.2887 8.92623 42.1923 6.82985 39.6063 6.82985V8.00044ZM34.3345 8.00044V6.82985C33.7135 6.82985 33.1181 6.58318 32.679 6.14412L31.8513 6.97186L31.0235 7.7996C31.9016 8.67772 33.0926 9.17104 34.3345 9.17104V8.00044Z" fill="white" mask="url(#path-2-inside-1_10197_3904)"/>
<path d="M27.7459 17.5H19.7942C19.108 17.5 18.5518 18.0563 18.5518 18.7424V31.1669C18.5518 31.8531 19.108 32.4093 19.7942 32.4093H27.7459C28.432 32.4093 28.9883 31.8531 28.9883 31.1669V18.7424C28.9883 18.0563 28.432 17.5 27.7459 17.5Z" stroke="white" stroke-width="1.49093"/>
<path d="M21.5342 21.9727H26.007" stroke="white" stroke-width="1.49093" stroke-linecap="round"/>
<path d="M21.5342 25.9482H24.516" stroke="white" stroke-width="1.49093" stroke-linecap="round"/>
<path d="M30.4792 32.9067C32.675 32.9067 34.4551 31.1267 34.4551 28.9309C34.4551 26.7351 32.675 24.9551 30.4792 24.9551C28.2835 24.9551 26.5034 26.7351 26.5034 28.9309C26.5034 31.1267 28.2835 32.9067 30.4792 32.9067Z" fill="#19C5C7" stroke="white" stroke-width="1.49093"/>
<path d="M28.9761 28.9568L30.2185 30.1992L32.7034 27.4658" stroke="white" stroke-width="1.49093" stroke-linecap="round" stroke-linejoin="round"/>
</svg>
