<svg xmlns="http://www.w3.org/2000/svg" width="13" height="13" viewBox="0 0 13 13" fill="none">
  <g clip-path="url(#clip0_10019_1838)">
    <path d="M7.69784 3.29939C7.60188 3.39728 7.54814 3.52889 7.54814 3.66597C7.54814 3.80304 7.60188 3.93466 7.69784 4.03255L8.53572 4.87044C8.63362 4.96639 8.76523 5.02014 8.9023 5.02014C9.03938 5.02014 9.17099 4.96639 9.26888 4.87044L11.2432 2.89616C11.5065 3.47807 11.5862 4.12641 11.4717 4.75478C11.3572 5.38315 11.054 5.96171 10.6023 6.41335C10.1507 6.86499 9.57212 7.16826 8.94375 7.28275C8.31538 7.39725 7.66704 7.31752 7.08513 7.05419L3.46649 10.6728C3.25815 10.8812 2.97559 10.9982 2.68096 10.9982C2.38634 10.9982 2.10378 10.8812 1.89544 10.6728C1.68711 10.4645 1.57007 10.1819 1.57007 9.88731C1.57007 9.59268 1.68711 9.31012 1.89544 9.10178L5.51408 5.48315C5.25076 4.90124 5.17103 4.25289 5.28552 3.62452C5.40001 2.99615 5.70328 2.41759 6.15492 1.96595C6.60656 1.51431 7.18512 1.21104 7.81349 1.09655C8.44186 0.982057 9.0902 1.06179 9.67211 1.32511L7.70307 3.29416L7.69784 3.29939Z" stroke="white" stroke-width="1.1521" stroke-linecap="round" stroke-linejoin="round"/>
  </g>
  <defs>
    <clipPath id="clip0_10019_1838">
      <rect width="12.5684" height="12.5684" fill="white"/>
    </clipPath>
  </defs>
</svg>