<svg xmlns="http://www.w3.org/2000/svg" width="13" height="13" viewBox="0 0 13 13" fill="none">
  <g clip-path="url(#clip0_10019_1820)">
    <path d="M6.40497 8.00623C7.28932 8.00623 8.00623 7.28932 8.00623 6.40497C8.00623 5.52062 7.28932 4.80371 6.40497 4.80371C5.52062 4.80371 4.80371 5.52062 4.80371 6.40497C4.80371 7.28932 5.52062 8.00623 6.40497 8.00623Z" stroke="white" stroke-width="1.17426" stroke-linecap="round" stroke-linejoin="round"/>
    <path d="M10.3547 8.00622C10.2837 8.16721 10.2625 8.34579 10.2939 8.51894C10.3253 8.69209 10.4078 8.85186 10.5309 8.97765L10.5629 9.00968C10.6621 9.10886 10.7408 9.22661 10.7944 9.3562C10.8481 9.48578 10.8757 9.62467 10.8757 9.76494C10.8757 9.9052 10.8481 10.0441 10.7944 10.1737C10.7408 10.3033 10.6621 10.421 10.5629 10.5202C10.4637 10.6194 10.346 10.6981 10.2164 10.7517C10.0868 10.8054 9.9479 10.833 9.80764 10.833C9.66737 10.833 9.52848 10.8054 9.3989 10.7517C9.26931 10.6981 9.15156 10.6194 9.05238 10.5202L9.02035 10.4882C8.89456 10.3651 8.73479 10.2826 8.56164 10.2512C8.38849 10.2198 8.20991 10.241 8.04892 10.312C7.89106 10.3797 7.75642 10.492 7.66158 10.6352C7.56675 10.7784 7.51586 10.9462 7.51517 11.118V11.2087C7.51517 11.4919 7.4027 11.7634 7.20251 11.9636C7.00231 12.1638 6.73079 12.2762 6.44767 12.2762C6.16455 12.2762 5.89302 12.1638 5.69283 11.9636C5.49263 11.7634 5.38016 11.4919 5.38016 11.2087V11.1607C5.37603 10.984 5.31884 10.8127 5.21604 10.669C5.11323 10.5252 4.96957 10.4157 4.80371 10.3547C4.64272 10.2837 4.46414 10.2625 4.29099 10.2939C4.11785 10.3253 3.95808 10.4078 3.83228 10.5309L3.80026 10.5629C3.59995 10.7632 3.32827 10.8757 3.045 10.8757C2.76172 10.8757 2.49004 10.7632 2.28974 10.5629C2.08943 10.3626 1.9769 10.0909 1.9769 9.80764C1.9769 9.52436 2.08943 9.25269 2.28974 9.05238L2.32176 9.02035C2.44481 8.89456 2.52736 8.73479 2.55875 8.56164C2.59015 8.38849 2.56895 8.20991 2.4979 8.04892C2.43024 7.89106 2.3179 7.75642 2.17469 7.66158C2.03149 7.56675 1.86369 7.51586 1.69193 7.51517H1.6012C1.31808 7.51517 1.04655 7.4027 0.846356 7.20251C0.64616 7.00231 0.533691 6.73079 0.533691 6.44767C0.533691 6.16455 0.64616 5.89302 0.846356 5.69283C1.04655 5.49263 1.31808 5.38016 1.6012 5.38016H1.64923C1.8259 5.37603 1.99724 5.31884 2.14098 5.21604C2.28472 5.11323 2.3942 4.96957 2.4552 4.80371C2.52625 4.64272 2.54744 4.46414 2.51605 4.29099C2.48466 4.11785 2.40211 3.95808 2.27906 3.83228L2.24704 3.80026C2.14785 3.70107 2.06918 3.58333 2.0155 3.45374C1.96182 3.32415 1.9342 3.18526 1.9342 3.045C1.9342 2.90473 1.96182 2.76584 2.0155 2.63625C2.06918 2.50667 2.14785 2.38892 2.24704 2.28974C2.34622 2.19055 2.46396 2.11188 2.59355 2.0582C2.72314 2.00453 2.86203 1.9769 3.0023 1.9769C3.14256 1.9769 3.28145 2.00453 3.41104 2.0582C3.54063 2.11188 3.65837 2.19055 3.75756 2.28974L3.78958 2.32176C3.91538 2.44481 4.07515 2.52736 4.24829 2.55875C4.42144 2.59015 4.60002 2.56895 4.76101 2.4979H4.80371C4.96158 2.43024 5.09622 2.3179 5.19105 2.17469C5.28589 2.03149 5.33678 1.86369 5.33746 1.69193V1.6012C5.33746 1.31808 5.44993 1.04655 5.65013 0.846356C5.85032 0.64616 6.12185 0.533691 6.40497 0.533691C6.68809 0.533691 6.95961 0.64616 7.15981 0.846356C7.36 1.04655 7.47247 1.31808 7.47247 1.6012V1.64923C7.47316 1.82099 7.52405 1.98879 7.61888 2.13199C7.71372 2.2752 7.84836 2.38754 8.00622 2.4552C8.16721 2.52625 8.34579 2.54744 8.51894 2.51605C8.69209 2.48466 8.85186 2.40211 8.97765 2.27906L9.00968 2.24704C9.20999 2.04673 9.48166 1.9342 9.76494 1.9342C9.9052 1.9342 10.0441 1.96182 10.1737 2.0155C10.3033 2.06918 10.421 2.14785 10.5202 2.24704C10.6194 2.34622 10.6981 2.46397 10.7517 2.59355C10.8054 2.72314 10.833 2.86203 10.833 3.0023C10.833 3.14256 10.8054 3.28145 10.7517 3.41104C10.6981 3.54063 10.6194 3.65837 10.5202 3.75756L10.4882 3.78958C10.3651 3.91538 10.2826 4.07515 10.2512 4.24829C10.2198 4.42144 10.241 4.60002 10.312 4.76101V4.80371C10.3797 4.96158 10.492 5.09622 10.6352 5.19105C10.7784 5.28589 10.9462 5.33678 11.118 5.33746H11.2087C11.4919 5.33746 11.7634 5.44993 11.9636 5.65013C12.1638 5.85032 12.2762 6.12185 12.2762 6.40497C12.2762 6.68809 12.1638 6.95961 11.9636 7.15981C11.7634 7.36 11.4919 7.47247 11.2087 7.47247H11.1607C10.9889 7.47316 10.8211 7.52405 10.6779 7.61888C10.5347 7.71372 10.4224 7.84836 10.3547 8.00622Z" stroke="white" stroke-width="1.17426" stroke-linecap="round" stroke-linejoin="round"/>
  </g>
  <defs>
    <clipPath id="clip0_10019_1820">
      <rect width="12.8101" height="12.8101" fill="white"/>
    </clipPath>
  </defs>
</svg>