<svg width="52" height="52" viewBox="0 0 52 52" fill="none" xmlns="http://www.w3.org/2000/svg">
<path fill-rule="evenodd" clip-rule="evenodd" d="M32.8156 5.43612C33.5417 6.16227 34.5266 6.57022 35.5535 6.57022H41.2642C43.4026 6.57022 45.1362 8.30379 45.1362 10.4423V16.153C45.1362 17.1799 45.5441 18.1647 46.2701 18.8908L50.4171 23.0383C51.9291 24.5505 51.929 27.002 50.417 28.5141L46.2703 32.6607C45.5442 33.3869 45.1362 34.3717 45.1362 35.3987V41.4189C45.1362 43.5573 43.4026 45.2909 41.2642 45.2909H35.244C34.217 45.2909 33.2322 45.6989 32.506 46.425L28.5138 50.4172C27.0017 51.9294 24.55 51.9294 23.0379 50.4172L19.0457 46.425C18.3196 45.6989 17.3347 45.2909 16.3078 45.2909H10.2885C8.15006 45.2909 6.41649 43.5573 6.41649 41.4189V35.3998C6.41649 34.3728 6.00847 33.3878 5.28222 32.6617L1.13426 28.5142C-0.378021 27.0021 -0.378098 24.5504 1.13409 23.0382L5.28239 18.8899C6.00854 18.1637 6.41649 17.1788 6.41649 16.1519V10.4423C6.41649 8.30379 8.15006 6.57022 10.2885 6.57022H15.9982C17.0251 6.57022 18.01 6.16227 18.7361 5.43612L23.0379 1.13434C24.55 -0.377788 27.0017 -0.377788 28.5138 1.13434L32.8156 5.43612Z" fill="#1CB5B3"/>
<mask id="path-2-inside-1_9876_1164" fill="white">
<path fill-rule="evenodd" clip-rule="evenodd" d="M31.8512 6.97113C32.5098 7.62972 33.403 7.99971 34.3344 7.99971H39.6072C41.5467 7.99971 43.119 9.572 43.119 11.5115V16.7845C43.119 17.7158 43.489 18.6089 44.1474 19.2675L48.1723 23.2929C49.5436 24.6643 49.5435 26.8878 48.1721 28.2591L44.1476 32.2836C43.489 32.9422 43.119 33.8355 43.119 34.7668V39.6061C43.119 41.5456 41.5467 43.1179 39.6072 43.1179H34.768C33.8366 43.1179 32.9434 43.4879 32.2848 44.1465L28.3063 48.1249C26.9349 49.4963 24.7114 49.4963 23.3399 48.1249L19.3615 44.1465C18.7029 43.4879 17.8096 43.1179 16.8783 43.1179H11.5127C9.57315 43.1179 8.00086 41.5456 8.00086 39.6061V34.2405C8.00086 33.3091 7.63087 32.4159 6.97228 31.7573L3.47414 28.2591C2.10276 26.8877 2.10269 24.6643 3.47396 23.2929L6.97245 19.7939C7.63094 19.1353 8.00086 18.2421 8.00086 17.3108V11.5115C8.00086 9.572 9.57315 7.99971 11.5127 7.99971H17.3119C18.2432 7.99971 19.1365 7.62972 19.7951 6.97113L23.3399 3.42629C24.7114 2.05485 26.9349 2.05484 28.3063 3.42628L31.8512 6.97113Z"/>
</mask>
<path fill-rule="evenodd" clip-rule="evenodd" d="M31.8512 6.97113C32.5098 7.62972 33.403 7.99971 34.3344 7.99971H39.6072C41.5467 7.99971 43.119 9.572 43.119 11.5115V16.7845C43.119 17.7158 43.489 18.6089 44.1474 19.2675L48.1723 23.2929C49.5436 24.6643 49.5435 26.8878 48.1721 28.2591L44.1476 32.2836C43.489 32.9422 43.119 33.8355 43.119 34.7668V39.6061C43.119 41.5456 41.5467 43.1179 39.6072 43.1179H34.768C33.8366 43.1179 32.9434 43.4879 32.2848 44.1465L28.3063 48.1249C26.9349 49.4963 24.7114 49.4963 23.3399 48.1249L19.3615 44.1465C18.7029 43.4879 17.8096 43.1179 16.8783 43.1179H11.5127C9.57315 43.1179 8.00086 41.5456 8.00086 39.6061V34.2405C8.00086 33.3091 7.63087 32.4159 6.97228 31.7573L3.47414 28.2591C2.10276 26.8877 2.10269 24.6643 3.47396 23.2929L6.97245 19.7939C7.63094 19.1353 8.00086 18.2421 8.00086 17.3108V11.5115C8.00086 9.572 9.57315 7.99971 11.5127 7.99971H17.3119C18.2432 7.99971 19.1365 7.62972 19.7951 6.97113L23.3399 3.42629C24.7114 2.05485 26.9349 2.05484 28.3063 3.42628L31.8512 6.97113Z" fill="#1CB5B3"/>
<path fill-rule="evenodd" clip-rule="evenodd" d="M19.7951 6.97113L18.9673 6.14339L19.7951 6.97113ZM6.97228 31.7573L6.14454 32.585L6.97228 31.7573ZM19.3615 44.1465L20.1892 43.3187L19.3615 44.1465ZM28.3063 48.1249L29.1341 48.9526L28.3063 48.1249ZM23.3399 48.1249L22.5122 48.9526L23.3399 48.1249ZM32.2848 44.1465L31.457 43.3187L32.2848 44.1465ZM44.1476 32.2836L43.3199 31.4559L44.1476 32.2836ZM48.1723 23.2929L47.3445 24.1205L48.1723 23.2929ZM48.1721 28.2591L47.3444 27.4314L48.1721 28.2591ZM44.1474 19.2675L44.9752 18.4398L44.1474 19.2675ZM34.3344 7.99971V9.17031H39.6072V7.99971V6.82911H34.3344V7.99971ZM43.119 11.5115H41.9484V16.7845H43.119H44.2896V11.5115H43.119ZM44.1474 19.2675L43.3197 20.0952L47.3445 24.1205L48.1723 23.2929L49.0001 22.4652L44.9752 18.4398L44.1474 19.2675ZM48.1721 28.2591L47.3444 27.4314L43.3199 31.4559L44.1476 32.2836L44.9753 33.1114L48.9998 29.0869L48.1721 28.2591ZM43.119 34.7668H41.9484V39.6061H43.119H44.2896V34.7668H43.119ZM39.6072 43.1179V41.9473H34.768V43.1179V44.2885H39.6072V43.1179ZM32.2848 44.1465L31.457 43.3187L27.4786 47.2972L28.3063 48.1249L29.1341 48.9526L33.1125 44.9742L32.2848 44.1465ZM23.3399 48.1249L24.1677 47.2972L20.1892 43.3187L19.3615 44.1465L18.5337 44.9742L22.5122 48.9526L23.3399 48.1249ZM16.8783 43.1179V41.9473H11.5127V43.1179V44.2885H16.8783V43.1179ZM8.00086 39.6061H9.17146V34.2405H8.00086H6.83026V39.6061H8.00086ZM6.97228 31.7573L7.80002 30.9295L4.30188 27.4314L3.47414 28.2591L2.6464 29.0869L6.14454 32.585L6.97228 31.7573ZM3.47396 23.2929L4.30176 24.1205L7.80025 20.6216L6.97245 19.7939L6.14466 18.9662L2.64617 22.4652L3.47396 23.2929ZM8.00086 17.3108H9.17146V11.5115H8.00086H6.83026V17.3108H8.00086ZM11.5127 7.99971V9.17031H17.3119V7.99971V6.82911H11.5127V7.99971ZM19.7951 6.97113L20.6228 7.79887L24.1677 4.25402L23.3399 3.42629L22.5122 2.59855L18.9673 6.14339L19.7951 6.97113ZM28.3063 3.42628L27.4786 4.25402L31.0234 7.79887L31.8512 6.97113L32.6789 6.14339L29.1341 2.59855L28.3063 3.42628ZM23.3399 3.42629L24.1677 4.25402C25.0819 3.33973 26.5643 3.33973 27.4786 4.25402L28.3063 3.42628L29.1341 2.59855C27.3055 0.769958 24.3408 0.769962 22.5122 2.59855L23.3399 3.42629ZM17.3119 7.99971V9.17031C18.5537 9.17031 19.7447 8.67699 20.6228 7.79887L19.7951 6.97113L18.9673 6.14339C18.5283 6.58245 17.9328 6.82911 17.3119 6.82911V7.99971ZM8.00086 11.5115H9.17146C9.17146 10.2185 10.2196 9.17031 11.5127 9.17031V7.99971V6.82911C8.92664 6.82911 6.83026 8.92549 6.83026 11.5115H8.00086ZM6.97245 19.7939L7.80025 20.6216C8.67823 19.7435 9.17146 18.5526 9.17146 17.3108H8.00086H6.83026C6.83026 17.9317 6.58365 18.5272 6.14466 18.9662L6.97245 19.7939ZM3.47414 28.2591L4.30188 27.4314C3.38763 26.5171 3.38757 25.0349 4.30176 24.1205L3.47396 23.2929L2.64617 22.4652C0.817797 24.2938 0.817903 27.2584 2.6464 29.0869L3.47414 28.2591ZM8.00086 34.2405H9.17146C9.17146 32.9986 8.67814 31.8076 7.80002 30.9295L6.97228 31.7573L6.14454 32.585C6.5836 33.0241 6.83026 33.6196 6.83026 34.2405H8.00086ZM11.5127 43.1179V41.9473C10.2196 41.9473 9.17146 40.8991 9.17146 39.6061H8.00086H6.83026C6.83026 42.1921 8.92664 44.2885 11.5127 44.2885V43.1179ZM19.3615 44.1465L20.1892 43.3187C19.3111 42.4406 18.1201 41.9473 16.8783 41.9473V43.1179V44.2885C17.4992 44.2885 18.0947 44.5351 18.5337 44.9742L19.3615 44.1465ZM28.3063 48.1249L27.4786 47.2972C26.5643 48.2115 25.0819 48.2115 24.1677 47.2972L23.3399 48.1249L22.5122 48.9526C24.3408 50.7812 27.3055 50.7812 29.1341 48.9526L28.3063 48.1249ZM34.768 43.1179V41.9473C33.5261 41.9473 32.3352 42.4406 31.457 43.3187L32.2848 44.1465L33.1125 44.9742C33.5516 44.5351 34.1471 44.2885 34.768 44.2885V43.1179ZM43.119 39.6061H41.9484C41.9484 40.8991 40.9002 41.9473 39.6072 41.9473V43.1179V44.2885C42.1932 44.2885 44.2896 42.1921 44.2896 39.6061H43.119ZM44.1476 32.2836L43.3199 31.4559C42.4417 32.334 41.9484 33.525 41.9484 34.7668H43.119H44.2896C44.2896 34.1459 44.5363 33.5504 44.9753 33.1114L44.1476 32.2836ZM48.1723 23.2929L47.3445 24.1205C48.2587 25.0349 48.2586 26.5171 47.3444 27.4314L48.1721 28.2591L48.9998 29.0869C50.8284 27.2584 50.8284 24.2938 49.0001 22.4652L48.1723 23.2929ZM43.119 16.7845H41.9484C41.9484 18.0262 42.4417 19.2171 43.3197 20.0952L44.1474 19.2675L44.9752 18.4398C44.5362 18.0008 44.2896 17.4053 44.2896 16.7845H43.119ZM39.6072 7.99971V9.17031C40.9002 9.17031 41.9484 10.2185 41.9484 11.5115H43.119H44.2896C44.2896 8.92549 42.1932 6.82911 39.6072 6.82911V7.99971ZM34.3344 7.99971V6.82911C33.7135 6.82911 33.118 6.58245 32.6789 6.14339L31.8512 6.97113L31.0234 7.79887C31.9016 8.67699 33.0926 9.17031 34.3344 9.17031V7.99971Z" fill="white" mask="url(#path-2-inside-1_9876_1164)"/>
<path d="M25.4949 16.8857L16 28.2197H24.5454L23.5959 35.7756L33.0909 24.4417H24.5454L25.4949 16.8857Z" stroke="white" stroke-width="1.97894" stroke-linecap="round" stroke-linejoin="round"/>
</svg>
