<svg width="52" height="52" viewBox="0 0 52 52" fill="none" xmlns="http://www.w3.org/2000/svg">
<path fill-rule="evenodd" clip-rule="evenodd" d="M32.8166 5.43685C33.5427 6.163 34.5276 6.57095 35.5545 6.57095H41.2651C43.4036 6.57095 45.1372 8.30452 45.1372 10.443V16.1538C45.1372 17.1806 45.5451 18.1654 46.2711 18.8915L50.4172 23.0381C51.9291 24.5502 51.929 27.0017 50.417 28.5138L46.2713 32.6595C45.5451 33.3857 45.1372 34.3705 45.1372 35.3975V41.4186C45.1372 43.5571 43.4036 45.2907 41.2651 45.2907H35.244C34.217 45.2907 33.2322 45.6986 32.506 46.4248L28.5138 50.417C27.0017 51.9291 24.55 51.9291 23.0379 50.417L19.0457 46.4248C18.3196 45.6986 17.3347 45.2907 16.3078 45.2907H10.2885C8.15006 45.2907 6.41649 43.5571 6.41649 41.4186V35.3996C6.41649 34.3725 6.00847 33.3876 5.28222 32.6614L1.13426 28.514C-0.378021 27.0019 -0.378098 24.5501 1.13409 23.0379L5.28239 18.8896C6.00854 18.1635 6.41649 17.1786 6.41649 16.1517V10.443C6.41649 8.30452 8.15006 6.57095 10.2885 6.57095H15.9972C17.0241 6.57095 18.009 6.163 18.7352 5.43685L23.0379 1.1341C24.55 -0.378031 27.0017 -0.378033 28.5138 1.1341L32.8166 5.43685Z" fill="#1CB5B3"/>
<mask id="path-2-inside-1_9876_1188" fill="white">
<path fill-rule="evenodd" clip-rule="evenodd" d="M32.2077 7.32806C32.8663 7.98665 33.7595 8.35665 34.6909 8.35665H39.87C41.8095 8.35665 43.3818 9.92893 43.3818 11.8684V17.0475C43.3818 17.9789 43.7518 18.8721 44.4104 19.5307L48.172 23.2924C49.5435 24.6638 49.5435 26.8874 48.172 28.2588L44.4104 32.0204C43.7518 32.679 43.3818 33.5723 43.3818 34.5037V39.963C43.3818 41.9025 41.8095 43.4748 39.87 43.4748H34.4106C33.4793 43.4748 32.586 43.8448 31.9274 44.5034L28.3064 48.1244C26.935 49.4958 24.7114 49.4958 23.34 48.1244L19.719 44.5034C19.0604 43.8448 18.1671 43.4748 17.2358 43.4748H11.7754C9.83591 43.4748 8.26363 41.9025 8.26363 39.963V34.5027C8.26363 33.5713 7.89364 32.6781 7.23505 32.0195L3.47438 28.2588C2.10294 26.8874 2.10294 24.6638 3.47438 23.2924L7.23505 19.5317C7.89364 18.8731 8.26363 17.9799 8.26363 17.0485V11.8684C8.26363 9.92893 9.83591 8.35665 11.7754 8.35665H16.9555C17.8869 8.35665 18.7801 7.98665 19.4387 7.32806L23.34 3.42678C24.7114 2.05533 26.935 2.05533 28.3064 3.42677L32.2077 7.32806Z"/>
</mask>
<path fill-rule="evenodd" clip-rule="evenodd" d="M32.2077 7.32806C32.8663 7.98665 33.7595 8.35665 34.6909 8.35665H39.87C41.8095 8.35665 43.3818 9.92893 43.3818 11.8684V17.0475C43.3818 17.9789 43.7518 18.8721 44.4104 19.5307L48.172 23.2924C49.5435 24.6638 49.5435 26.8874 48.172 28.2588L44.4104 32.0204C43.7518 32.679 43.3818 33.5723 43.3818 34.5037V39.963C43.3818 41.9025 41.8095 43.4748 39.87 43.4748H34.4106C33.4793 43.4748 32.586 43.8448 31.9274 44.5034L28.3064 48.1244C26.935 49.4958 24.7114 49.4958 23.34 48.1244L19.719 44.5034C19.0604 43.8448 18.1671 43.4748 17.2358 43.4748H11.7754C9.83591 43.4748 8.26363 41.9025 8.26363 39.963V34.5027C8.26363 33.5713 7.89364 32.6781 7.23505 32.0195L3.47438 28.2588C2.10294 26.8874 2.10294 24.6638 3.47438 23.2924L7.23505 19.5317C7.89364 18.8731 8.26363 17.9799 8.26363 17.0485V11.8684C8.26363 9.92893 9.83591 8.35665 11.7754 8.35665H16.9555C17.8869 8.35665 18.7801 7.98665 19.4387 7.32806L23.34 3.42678C24.7114 2.05533 26.935 2.05533 28.3064 3.42677L32.2077 7.32806Z" fill="#1CB5B3"/>
<path fill-rule="evenodd" clip-rule="evenodd" d="M28.3064 3.42677L27.4787 4.25451L28.3064 3.42677ZM19.4387 7.32806L18.611 6.50033L19.4387 7.32806ZM7.23505 19.5317L6.40731 18.704L7.23505 19.5317ZM3.47438 23.2924L4.30212 24.1201L3.47438 23.2924ZM7.23505 32.0195L6.40731 32.8472L7.23505 32.0195ZM19.719 44.5034L20.5467 43.6757L19.719 44.5034ZM28.3064 48.1244L29.1342 48.9521L28.3064 48.1244ZM23.34 48.1244L22.5122 48.9521L23.34 48.1244ZM31.9274 44.5034L31.0997 43.6757L31.9274 44.5034ZM44.4104 32.0204L43.5826 31.1927L44.4104 32.0204ZM48.172 23.2924L48.9998 22.4646L48.172 23.2924ZM44.4104 19.5307L43.5826 20.3585L44.4104 19.5307ZM32.2077 7.32806L33.0354 6.50033L32.2077 7.32806ZM34.6909 8.35665V9.52724H39.87V8.35665V7.18605H34.6909V8.35665ZM43.3818 11.8684H42.2112V17.0475H43.3818H44.5524V11.8684H43.3818ZM44.4104 19.5307L43.5826 20.3585L47.3443 24.1201L48.172 23.2924L48.9998 22.4646L45.2381 18.703L44.4104 19.5307ZM48.172 28.2588L47.3443 27.4311L43.5826 31.1927L44.4104 32.0204L45.2381 32.8482L48.9998 29.0865L48.172 28.2588ZM43.3818 34.5037H42.2112V39.963H43.3818H44.5524V34.5037H43.3818ZM39.87 43.4748V42.3042H34.4106V43.4748V44.6454H39.87V43.4748ZM31.9274 44.5034L31.0997 43.6757L27.4787 47.2967L28.3064 48.1244L29.1342 48.9521L32.7552 45.3311L31.9274 44.5034ZM23.34 48.1244L24.1677 47.2967L20.5467 43.6757L19.719 44.5034L18.8912 45.3311L22.5122 48.9521L23.34 48.1244ZM17.2358 43.4748V42.3042H11.7754V43.4748V44.6454H17.2358V43.4748ZM8.26363 39.963H9.43423V34.5027H8.26363H7.09303V39.963H8.26363ZM7.23505 32.0195L8.06279 31.1917L4.30212 27.4311L3.47438 28.2588L2.64664 29.0865L6.40731 32.8472L7.23505 32.0195ZM3.47438 23.2924L4.30212 24.1201L8.06279 20.3594L7.23505 19.5317L6.40731 18.704L2.64664 22.4646L3.47438 23.2924ZM8.26363 17.0485H9.43423V11.8684H8.26363H7.09303V17.0485H8.26363ZM11.7754 8.35665V9.52724H16.9555V8.35665V7.18605H11.7754V8.35665ZM19.4387 7.32806L20.2664 8.1558L24.1677 4.25451L23.34 3.42678L22.5122 2.59904L18.611 6.50033L19.4387 7.32806ZM28.3064 3.42677L27.4787 4.25451L31.38 8.1558L32.2077 7.32806L33.0354 6.50033L29.1342 2.59904L28.3064 3.42677ZM23.34 3.42678L24.1677 4.25451C25.082 3.34022 26.5644 3.34022 27.4787 4.25451L28.3064 3.42677L29.1342 2.59904C27.3056 0.770447 24.3408 0.770451 22.5122 2.59904L23.34 3.42678ZM16.9555 8.35665V9.52724C18.1973 9.52724 19.3883 9.03392 20.2664 8.1558L19.4387 7.32806L18.611 6.50033C18.1719 6.93939 17.5764 7.18605 16.9555 7.18605V8.35665ZM8.26363 11.8684H9.43423C9.43423 10.5754 10.4824 9.52724 11.7754 9.52724V8.35665V7.18605C9.18941 7.18605 7.09303 9.28243 7.09303 11.8684H8.26363ZM7.23505 19.5317L8.06279 20.3594C8.94091 19.4813 9.43423 18.2903 9.43423 17.0485H8.26363H7.09303C7.09303 17.6694 6.84637 18.2649 6.40731 18.704L7.23505 19.5317ZM3.47438 28.2588L4.30212 27.4311C3.38783 26.5168 3.38783 25.0344 4.30212 24.1201L3.47438 23.2924L2.64664 22.4646C0.818057 24.2932 0.818055 27.258 2.64664 29.0865L3.47438 28.2588ZM8.26363 34.5027H9.43423C9.43423 33.2608 8.94091 32.0699 8.06279 31.1917L7.23505 32.0195L6.40731 32.8472C6.84637 33.2863 7.09303 33.8818 7.09303 34.5027H8.26363ZM11.7754 43.4748V42.3042C10.4824 42.3042 9.43423 41.256 9.43423 39.963H8.26363H7.09303C7.09303 42.549 9.18941 44.6454 11.7754 44.6454V43.4748ZM19.719 44.5034L20.5467 43.6757C19.6686 42.7975 18.4776 42.3042 17.2358 42.3042V43.4748V44.6454C17.8567 44.6454 18.4522 44.8921 18.8912 45.3311L19.719 44.5034ZM28.3064 48.1244L27.4787 47.2967C26.5644 48.211 25.082 48.211 24.1677 47.2967L23.34 48.1244L22.5122 48.9521C24.3408 50.7807 27.3056 50.7807 29.1342 48.9521L28.3064 48.1244ZM34.4106 43.4748V42.3042C33.1688 42.3042 31.9778 42.7975 31.0997 43.6757L31.9274 44.5034L32.7552 45.3311C33.1942 44.8921 33.7897 44.6454 34.4106 44.6454V43.4748ZM43.3818 39.963H42.2112C42.2112 41.256 41.163 42.3042 39.87 42.3042V43.4748V44.6454C42.456 44.6454 44.5524 42.549 44.5524 39.963H43.3818ZM44.4104 32.0204L43.5826 31.1927C42.7045 32.0708 42.2112 33.2618 42.2112 34.5037H43.3818H44.5524C44.5524 33.8827 44.7991 33.2872 45.2381 32.8482L44.4104 32.0204ZM48.172 23.2924L47.3443 24.1201C48.2586 25.0344 48.2586 26.5168 47.3443 27.4311L48.172 28.2588L48.9998 29.0865C50.8283 27.258 50.8283 24.2932 48.9998 22.4646L48.172 23.2924ZM43.3818 17.0475H42.2112C42.2112 18.2894 42.7045 19.4804 43.5826 20.3585L44.4104 19.5307L45.2381 18.703C44.7991 18.2639 44.5524 17.6684 44.5524 17.0475H43.3818ZM39.87 8.35665V9.52724C41.163 9.52724 42.2112 10.5754 42.2112 11.8684H43.3818H44.5524C44.5524 9.28243 42.456 7.18605 39.87 7.18605V8.35665ZM34.6909 8.35665V7.18605C34.07 7.18605 33.4745 6.93939 33.0354 6.50033L32.2077 7.32806L31.38 8.1558C32.2581 9.03392 33.4491 9.52724 34.6909 9.52724V8.35665Z" fill="white" mask="url(#path-2-inside-1_9876_1188)"/>
<path d="M24.8227 15.0216C20.5594 15.2946 16.8585 18.1601 15.5284 22.2204C14.6603 24.8643 14.8703 27.7158 16.1141 30.201C16.3264 30.628 16.4384 30.8217 16.7371 31.2744C17.8432 32.9499 19.423 34.2963 21.2198 35.092C23.0026 35.8807 24.9184 36.1561 26.8855 35.9064C28.89 35.6497 30.7801 34.805 32.3272 33.4726C35.0364 31.1391 36.3642 27.6645 35.9045 24.0989C35.6711 22.2881 34.9407 20.538 33.8067 19.0819C31.6458 16.305 28.3136 14.7999 24.8227 15.0216ZM23.7936 16.536C23.775 16.5594 23.6653 16.7087 23.5486 16.8674C22.9676 17.6608 22.4332 18.5475 22.0085 19.4202C21.7985 19.8543 21.5441 20.4423 21.4391 20.734C21.4088 20.8133 21.3784 20.8857 21.3691 20.8903C21.3481 20.902 20.7881 20.58 20.5407 20.4143C20.0484 20.0806 19.5723 19.6792 19.1523 19.2359L18.9773 19.0539L19.1873 18.8555C19.885 18.1975 20.5804 17.7144 21.4508 17.2851C21.9945 17.0167 22.4752 16.8277 22.9699 16.69C23.3013 16.5944 23.7119 16.4964 23.782 16.494C23.8193 16.4917 23.8216 16.4964 23.7936 16.536ZM27.7746 16.62C28.8713 16.9024 29.8864 17.3691 30.7824 18.0085C31.0951 18.2325 31.4312 18.4985 31.4428 18.5358C31.4545 18.5732 31.0018 19.1075 30.7241 19.3829C30.3461 19.7586 29.9331 20.1039 29.555 20.3606L29.4454 20.4376L29.408 20.349C29.387 20.3 29.3333 20.1716 29.289 20.0643C29.1723 19.7866 28.799 19.0212 28.638 18.7318C28.2179 17.9758 27.7372 17.2337 27.2565 16.599L27.1702 16.487L27.2752 16.5034C27.3312 16.5127 27.5576 16.5664 27.7746 16.62ZM24.8344 19.5369C24.8344 20.748 24.8274 21.7444 24.8204 21.7514C24.804 21.7677 24.1996 21.7234 23.8893 21.6814C23.4226 21.6207 22.5592 21.4154 22.5592 21.3664C22.5592 21.3337 22.8252 20.678 22.9559 20.3886C23.2872 19.6559 23.6793 18.9605 24.1553 18.2535C24.4143 17.8708 24.804 17.3341 24.825 17.3318C24.832 17.3318 24.8367 18.3235 24.8344 19.5369ZM26.4328 17.7074C27.0745 18.5918 27.6812 19.6489 28.0989 20.6103C28.3043 21.0863 28.3019 21.07 28.1783 21.1167C28.1223 21.1377 27.9519 21.203 27.7979 21.2614C27.3685 21.427 26.6475 21.6184 26.2881 21.6604L26.1528 21.6767V19.5276C26.1528 18.3468 26.1621 17.3784 26.1715 17.3784C26.1831 17.3784 26.2998 17.5278 26.4328 17.7074ZM32.7146 19.8403C33.3843 20.692 33.8767 21.5997 34.2104 22.6055C34.3177 22.9275 34.4927 23.6322 34.5394 23.9239C34.586 24.2272 34.6514 24.8013 34.6397 24.8129C34.6327 24.8199 31.1231 24.8293 30.6051 24.8246L30.4231 24.8223V24.6963C30.4231 24.5143 30.3367 23.7255 30.2831 23.4105C30.2154 23.0138 30.0544 22.2741 29.9797 22.0221C29.9424 21.9007 29.9097 21.7841 29.905 21.7631C29.9004 21.7351 29.9937 21.6604 30.2131 21.5157C30.9575 21.021 31.6808 20.3723 32.2339 19.7003L32.4182 19.4762L32.4836 19.5532C32.5186 19.5952 32.6236 19.7236 32.7146 19.8403ZM18.3356 20.3093C19.0216 21.0047 19.808 21.5857 20.6877 22.0477C20.8487 22.1318 20.9678 22.2088 20.9631 22.2228C20.9328 22.3044 20.7554 23.1585 20.7064 23.4689C20.6457 23.8445 20.5757 24.4699 20.5757 24.6426C20.5757 24.6963 20.5687 24.7639 20.5617 24.7919L20.5477 24.8456H18.4499H16.3498L16.3661 24.6869C16.5084 23.1235 17.0311 21.6627 17.9225 20.3373C18.0159 20.1996 18.0952 20.0853 18.1022 20.0853C18.1092 20.0853 18.2142 20.1856 18.3356 20.3093ZM28.8223 22.7618C28.9763 23.3942 29.058 23.9099 29.128 24.6636L29.1443 24.8223H27.6719C26.8622 24.8223 26.1925 24.8199 26.1831 24.8153C26.1528 24.8059 26.1551 23.0512 26.1855 23.0302C26.1995 23.0185 26.3115 22.9975 26.4328 22.9811C27.0255 22.9018 28.1036 22.6008 28.603 22.3768C28.6613 22.3511 28.7103 22.3278 28.7126 22.3278C28.715 22.3254 28.764 22.5215 28.8223 22.7618ZM22.9956 22.8738C23.4506 22.9765 23.859 23.0278 24.643 23.0862L24.846 23.1002V23.9612V24.8223H23.3386H21.8311L21.8451 24.7336C21.8521 24.6869 21.8638 24.5633 21.8708 24.4606C21.9058 23.9776 21.9992 23.3685 22.1065 22.9065L22.1648 22.6615L22.4425 22.7361C22.5965 22.7781 22.8439 22.8411 22.9956 22.8738ZM20.5524 26.199C20.5641 26.2177 20.5757 26.283 20.5757 26.3437C20.5757 26.5257 20.6434 27.1418 20.7041 27.5245C20.7811 28.0028 20.9654 28.8336 21.0354 29.0132C21.0401 29.0272 20.9514 29.0902 20.8394 29.1533C20.081 29.5756 19.2433 30.2477 18.5619 30.9804C18.4382 31.1134 18.3332 31.2184 18.3286 31.2137C18.3239 31.2091 18.2679 31.1367 18.2049 31.0527C17.8362 30.5744 17.5422 30.0937 17.2505 29.5009C16.7605 28.5022 16.4781 27.4871 16.3638 26.3087L16.3474 26.1524L18.4406 26.157C20.2677 26.164 20.5337 26.1687 20.5524 26.199ZM24.825 26.7404C24.832 27.8255 24.8297 27.9118 24.7947 27.9305C24.7784 27.9375 24.6383 27.9562 24.4843 27.9702C23.9243 28.0192 23.0422 28.2105 22.5265 28.3949C22.3865 28.4439 22.2628 28.4859 22.2535 28.4859C22.2348 28.4859 22.0948 27.9095 22.0202 27.5291C21.9618 27.2234 21.8591 26.4231 21.8591 26.269V26.1524H23.3409H24.8227L24.825 26.7404ZM29.121 26.3157C29.1093 26.5467 29.0277 27.2071 28.974 27.4941C28.9296 27.7275 28.7803 28.3879 28.7546 28.4555C28.7476 28.4765 28.6823 28.4625 28.5166 28.4019C28.0173 28.2199 27.1702 28.0355 26.5075 27.9608C26.3371 27.9422 26.1878 27.9212 26.1761 27.9142C26.1505 27.8978 26.1435 26.1944 26.1691 26.1687C26.1761 26.1594 26.8458 26.1547 27.6556 26.157L29.128 26.164L29.121 26.3157ZM34.635 26.178C34.6397 26.1827 34.6327 26.2877 34.621 26.4091C34.5044 27.5898 34.1473 28.7729 33.6036 29.7926C33.452 30.075 33.2186 30.46 33.0623 30.6794C32.8826 30.936 32.6842 31.1927 32.6679 31.1927C32.6586 31.1927 32.5466 31.0761 32.4182 30.936C31.8419 30.3013 31.0415 29.655 30.2947 29.2233C30.1664 29.1486 30.0404 29.0739 30.0147 29.0576C29.9657 29.0272 29.9657 29.0272 30.0544 28.6702C30.1664 28.2199 30.2691 27.7112 30.3157 27.3775C30.3671 27.0204 30.4231 26.4581 30.4231 26.3064C30.4231 26.2364 30.4324 26.1757 30.4464 26.171C30.4768 26.1617 34.6234 26.1687 34.635 26.178ZM26.8062 29.3399C27.2355 29.4053 28.2319 29.676 28.3089 29.746C28.3649 29.7996 27.8399 30.929 27.3872 31.7178C27.0512 32.3081 26.2601 33.4936 26.1878 33.5192C26.1738 33.5239 26.1645 32.7515 26.1668 31.4074C26.1691 30.243 26.1715 29.2863 26.1738 29.2769C26.1761 29.2606 26.5028 29.2933 26.8062 29.3399ZM24.846 31.4027C24.846 32.5695 24.8367 33.5262 24.8274 33.5262C24.7994 33.5262 24.37 32.9219 24.0946 32.4995C23.6769 31.8601 23.2942 31.1717 23.0119 30.5604C22.8392 30.187 22.6759 29.7996 22.6759 29.767C22.6759 29.7413 23.2032 29.5709 23.5696 29.4799C23.985 29.3749 24.4843 29.2886 24.7247 29.2816L24.846 29.2793V31.4027ZM21.6118 30.663C21.8615 31.2627 22.2908 32.1028 22.6735 32.7445C22.8672 33.0642 23.3923 33.8506 23.6513 34.2029C23.7796 34.3756 23.8823 34.5203 23.88 34.5226C23.8683 34.5366 23.4879 34.455 23.1892 34.3756C21.7775 34.0069 20.5991 33.3839 19.486 32.4201C19.367 32.3175 19.269 32.2218 19.269 32.2078C19.269 32.1658 19.7333 31.6641 19.9947 31.4214C20.263 31.1717 20.5617 30.929 20.8441 30.7284C21.0448 30.586 21.4438 30.3293 21.4625 30.3293C21.4695 30.3293 21.5371 30.481 21.6118 30.663ZM29.9587 30.5837C30.4254 30.894 30.7404 31.1461 31.1278 31.5171C31.3868 31.7668 31.7532 32.1681 31.7532 32.2031C31.7532 32.2101 31.6458 32.3105 31.5152 32.4248C30.4721 33.3279 29.2773 33.9766 27.9939 34.3313C27.6369 34.4293 27.1375 34.5413 27.1212 34.525C27.1165 34.5203 27.1772 34.434 27.2542 34.3313C28.0803 33.2322 28.8736 31.8671 29.3637 30.7074C29.4524 30.4997 29.534 30.3293 29.5504 30.3293C29.5644 30.3293 29.7487 30.4437 29.9587 30.5837Z" fill="white"/>
</svg>
