<svg width="52" height="52" viewBox="0 0 52 52" fill="none" xmlns="http://www.w3.org/2000/svg">
<path fill-rule="evenodd" clip-rule="evenodd" d="M32.8148 5.43612C33.5409 6.16227 34.5258 6.57022 35.5527 6.57022H41.2643C43.4028 6.57022 45.1364 8.30379 45.1364 10.4423V16.1529C45.1364 17.1798 45.5443 18.1647 46.2705 18.8908L50.417 23.0373C51.9291 24.5495 51.9291 27.0011 50.417 28.5132L46.2705 32.6598C45.5443 33.3859 45.1364 34.3708 45.1364 35.3977V41.4189C45.1364 43.5573 43.4028 45.2909 41.2643 45.2909H35.2432C34.2162 45.2909 33.2314 45.6989 32.5052 46.425L28.513 50.4172C27.0009 51.9294 24.5492 51.9294 23.0371 50.4172L19.0449 46.425C18.3187 45.6989 17.3339 45.2909 16.3069 45.2909H10.2877C8.14925 45.2909 6.41568 43.5573 6.41568 41.4189V35.3987C6.41568 34.3717 6.00773 33.3869 5.28158 32.6607L1.1341 28.5132C-0.378033 27.0011 -0.378031 24.5495 1.1341 23.0373L5.28158 18.8899C6.00773 18.1637 6.41568 17.1788 6.41568 16.1519V10.4423C6.41568 8.30379 8.14925 6.57022 10.2877 6.57022H15.9974C17.0243 6.57022 18.0092 6.16227 18.7353 5.43612L23.0371 1.13434C24.5492 -0.377788 27.0009 -0.377788 28.513 1.13434L32.8148 5.43612Z" fill="#1CB5B3"/>
<mask id="path-2-inside-1_9876_1203" fill="white">
<path fill-rule="evenodd" clip-rule="evenodd" d="M32.2084 7.32856C32.867 7.98714 33.7603 8.35714 34.6917 8.35714H39.8698C41.8093 8.35714 43.3815 9.92942 43.3815 11.8689V17.047C43.3815 17.9784 43.7515 18.8717 44.4101 19.5302L48.1718 23.2919C49.5432 24.6633 49.5432 26.8869 48.1718 28.2583L44.4101 32.02C43.7515 32.6786 43.3815 33.5718 43.3815 34.5032V39.9635C43.3815 41.903 41.8093 43.4753 39.8698 43.4753H34.4104C33.479 43.4753 32.5858 43.8453 31.9272 44.5039L28.3062 48.1249C26.9347 49.4963 24.7112 49.4963 23.3397 48.1249L19.7187 44.5039C19.0601 43.8453 18.1669 43.4753 17.2355 43.4753H11.7752C9.83567 43.4753 8.26339 41.903 8.26339 39.9635V34.5022C8.26339 33.5708 7.89339 32.6776 7.2348 32.019L3.47414 28.2583C2.1027 26.8869 2.1027 24.6633 3.47414 23.2919L7.23481 19.5312C7.89339 18.8726 8.26339 17.9794 8.26339 17.048V11.8689C8.26339 9.92942 9.83567 8.35714 11.7752 8.35714H16.9543C17.8856 8.35714 18.7789 7.98714 19.4375 7.32855L23.3397 3.42629C24.7112 2.05484 26.9347 2.05485 28.3062 3.42629L32.2084 7.32856Z"/>
</mask>
<path fill-rule="evenodd" clip-rule="evenodd" d="M32.2084 7.32856C32.867 7.98714 33.7603 8.35714 34.6917 8.35714H39.8698C41.8093 8.35714 43.3815 9.92942 43.3815 11.8689V17.047C43.3815 17.9784 43.7515 18.8717 44.4101 19.5302L48.1718 23.2919C49.5432 24.6633 49.5432 26.8869 48.1718 28.2583L44.4101 32.02C43.7515 32.6786 43.3815 33.5718 43.3815 34.5032V39.9635C43.3815 41.903 41.8093 43.4753 39.8698 43.4753H34.4104C33.479 43.4753 32.5858 43.8453 31.9272 44.5039L28.3062 48.1249C26.9347 49.4963 24.7112 49.4963 23.3397 48.1249L19.7187 44.5039C19.0601 43.8453 18.1669 43.4753 17.2355 43.4753H11.7752C9.83567 43.4753 8.26339 41.903 8.26339 39.9635V34.5022C8.26339 33.5708 7.89339 32.6776 7.2348 32.019L3.47414 28.2583C2.1027 26.8869 2.1027 24.6633 3.47414 23.2919L7.23481 19.5312C7.89339 18.8726 8.26339 17.9794 8.26339 17.048V11.8689C8.26339 9.92942 9.83567 8.35714 11.7752 8.35714H16.9543C17.8856 8.35714 18.7789 7.98714 19.4375 7.32855L23.3397 3.42629C24.7112 2.05484 26.9347 2.05485 28.3062 3.42629L32.2084 7.32856Z" fill="#1CB5B3"/>
<path fill-rule="evenodd" clip-rule="evenodd" d="M23.3397 3.42629L22.512 2.59855L23.3397 3.42629ZM28.3062 3.42629L27.4784 4.25402L28.3062 3.42629ZM19.4375 7.32855L18.6097 6.50082L19.4375 7.32855ZM7.23481 19.5312L6.40707 18.7035L7.23481 19.5312ZM3.47414 23.2919L4.30188 24.1196L3.47414 23.2919ZM7.2348 32.019L6.40707 32.8467L7.2348 32.019ZM19.7187 44.5039L20.5465 43.6761L19.7187 44.5039ZM28.3062 48.1249L29.1339 48.9526L28.3062 48.1249ZM23.3397 48.1249L22.512 48.9526L23.3397 48.1249ZM31.9272 44.5039L31.0995 43.6761L31.9272 44.5039ZM44.4101 32.02L43.5824 31.1922L44.4101 32.02ZM48.1718 23.2919L48.9995 22.4642L48.1718 23.2919ZM44.4101 19.5302L43.5824 20.358L44.4101 19.5302ZM32.2084 7.32856L33.0362 6.50082L32.2084 7.32856ZM34.6917 8.35714V9.52773H39.8698V8.35714V7.18654H34.6917V8.35714ZM43.3815 11.8689H42.211V17.047H43.3815H44.5521V11.8689H43.3815ZM44.4101 19.5302L43.5824 20.358L47.344 24.1196L48.1718 23.2919L48.9995 22.4642L45.2379 18.7025L44.4101 19.5302ZM48.1718 28.2583L47.344 27.4306L43.5824 31.1922L44.4101 32.02L45.2379 32.8477L48.9995 29.0861L48.1718 28.2583ZM43.3815 34.5032H42.211V39.9635H43.3815H44.5521V34.5032H43.3815ZM39.8698 43.4753V42.3047H34.4104V43.4753V44.6459H39.8698V43.4753ZM31.9272 44.5039L31.0995 43.6761L27.4784 47.2972L28.3062 48.1249L29.1339 48.9526L32.7549 45.3316L31.9272 44.5039ZM23.3397 48.1249L24.1675 47.2972L20.5465 43.6761L19.7187 44.5039L18.891 45.3316L22.512 48.9526L23.3397 48.1249ZM17.2355 43.4753V42.3047H11.7752V43.4753V44.6459H17.2355V43.4753ZM8.26339 39.9635H9.43398V34.5022H8.26339H7.09279V39.9635H8.26339ZM7.2348 32.019L8.06254 31.1912L4.30187 27.4306L3.47414 28.2583L2.6464 29.0861L6.40707 32.8467L7.2348 32.019ZM3.47414 23.2919L4.30188 24.1196L8.06254 20.359L7.23481 19.5312L6.40707 18.7035L2.6464 22.4642L3.47414 23.2919ZM8.26339 17.048H9.43398V11.8689H8.26339H7.09279V17.048H8.26339ZM11.7752 8.35714V9.52773H16.9543V8.35714V7.18654H11.7752V8.35714ZM19.4375 7.32855L20.2652 8.15629L24.1675 4.25402L23.3397 3.42629L22.512 2.59855L18.6097 6.50082L19.4375 7.32855ZM28.3062 3.42629L27.4784 4.25402L31.3807 8.15629L32.2084 7.32856L33.0362 6.50082L29.1339 2.59855L28.3062 3.42629ZM23.3397 3.42629L24.1675 4.25402C25.0818 3.33973 26.5641 3.33973 27.4784 4.25402L28.3062 3.42629L29.1339 2.59855C27.3053 0.769961 24.3406 0.769959 22.512 2.59855L23.3397 3.42629ZM16.9543 8.35714V9.52773C18.1961 9.52773 19.3871 9.03441 20.2652 8.15629L19.4375 7.32855L18.6097 6.50082C18.1707 6.93988 17.5752 7.18654 16.9543 7.18654V8.35714ZM8.26339 11.8689H9.43398C9.43398 10.5759 10.4822 9.52773 11.7752 9.52773V8.35714V7.18654C9.18917 7.18654 7.09279 9.28292 7.09279 11.8689H8.26339ZM7.23481 19.5312L8.06254 20.359C8.94066 19.4808 9.43398 18.2899 9.43398 17.048H8.26339H7.09279C7.09279 17.6689 6.84613 18.2644 6.40707 18.7035L7.23481 19.5312ZM3.47414 28.2583L4.30187 27.4306C3.38758 26.5163 3.38758 25.0339 4.30188 24.1196L3.47414 23.2919L2.6464 22.4642C0.817813 24.2927 0.817811 27.2575 2.6464 29.0861L3.47414 28.2583ZM8.26339 34.5022H9.43398C9.43398 33.2604 8.94066 32.0694 8.06254 31.1912L7.2348 32.019L6.40707 32.8467C6.84613 33.2858 7.09279 33.8813 7.09279 34.5022H8.26339ZM11.7752 43.4753V42.3047C10.4822 42.3047 9.43398 41.2565 9.43398 39.9635H8.26339H7.09279C7.09279 42.5495 9.18917 44.6459 11.7752 44.6459V43.4753ZM19.7187 44.5039L20.5465 43.6761C19.6683 42.798 18.4774 42.3047 17.2355 42.3047V43.4753V44.6459C17.8564 44.6459 18.4519 44.8926 18.891 45.3316L19.7187 44.5039ZM28.3062 48.1249L27.4784 47.2972C26.5641 48.2115 25.0818 48.2115 24.1675 47.2972L23.3397 48.1249L22.512 48.9526C24.3406 50.7812 27.3053 50.7812 29.1339 48.9526L28.3062 48.1249ZM34.4104 43.4753V42.3047C33.1686 42.3047 31.9776 42.798 31.0995 43.6761L31.9272 44.5039L32.7549 45.3316C33.194 44.8926 33.7895 44.6459 34.4104 44.6459V43.4753ZM43.3815 39.9635H42.211C42.211 41.2565 41.1628 42.3047 39.8698 42.3047V43.4753V44.6459C42.4558 44.6459 44.5521 42.5495 44.5521 39.9635H43.3815ZM44.4101 32.02L43.5824 31.1922C42.7043 32.0703 42.211 33.2613 42.211 34.5032H43.3815H44.5521C44.5521 33.8823 44.7988 33.2868 45.2379 32.8477L44.4101 32.02ZM48.1718 23.2919L47.344 24.1196C48.2583 25.0339 48.2583 26.5163 47.344 27.4306L48.1718 28.2583L48.9995 29.0861C50.8281 27.2575 50.8281 24.2927 48.9995 22.4642L48.1718 23.2919ZM43.3815 17.047H42.211C42.211 18.2889 42.7043 19.4799 43.5824 20.358L44.4101 19.5302L45.2379 18.7025C44.7988 18.2635 44.5521 17.668 44.5521 17.047H43.3815ZM39.8698 8.35714V9.52773C41.1628 9.52773 42.211 10.5759 42.211 11.8689H43.3815H44.5521C44.5521 9.28292 42.4558 7.18654 39.8698 7.18654V8.35714ZM34.6917 8.35714V7.18654C34.0707 7.18654 33.4752 6.93988 33.0362 6.50082L32.2084 7.32856L31.3807 8.15629C32.2588 9.03441 33.4498 9.52773 34.6917 9.52773V8.35714Z" fill="white" mask="url(#path-2-inside-1_9876_1203)"/>
<path d="M18.1954 15.1279C18.1954 15.1386 18.1677 15.1492 18.1315 15.1492C18.0975 15.1492 18.0677 15.1577 18.0677 15.1705C18.0677 15.1812 18.0528 15.1918 18.0357 15.1918C17.9932 15.1918 17.7697 15.4153 17.7697 15.4578C17.7697 15.4749 17.7612 15.4898 17.7484 15.4898C17.7378 15.4898 17.7271 15.5281 17.7271 15.5749C17.7271 15.6217 17.7186 15.66 17.7059 15.66C17.6931 15.66 17.6846 15.76 17.6846 15.9154C17.6846 16.0708 17.6931 16.1708 17.7059 16.1708C17.7186 16.1708 17.7271 16.2708 17.7271 16.4262V16.6816H16.2373C15.2583 16.6816 14.7475 16.688 14.7475 16.7029C14.7475 16.7135 14.7199 16.7242 14.6879 16.7242C14.6539 16.7242 14.6156 16.7412 14.5985 16.7667C14.5815 16.7901 14.556 16.8093 14.5389 16.8093C14.5006 16.8093 14.407 16.9072 14.407 16.9476C14.407 16.9647 14.3985 16.9796 14.3857 16.9796C14.3751 16.9796 14.3644 16.9987 14.3644 17.0221C14.3644 17.0455 14.3559 17.0647 14.3431 17.0647C14.3325 17.0647 14.3219 17.0838 14.3219 17.1073C14.3219 17.1307 14.3133 17.1498 14.3006 17.1498C14.2878 17.1498 14.2793 17.2988 14.2793 17.5542C14.2793 17.8096 14.2878 17.9586 14.3006 17.9586C14.3133 17.9586 14.3219 18.0927 14.3219 18.3204C14.3219 18.5481 14.3304 18.6822 14.3431 18.6822C14.3559 18.6822 14.3644 18.7673 14.3644 18.895C14.3644 19.0227 14.3729 19.1079 14.3857 19.1079C14.3985 19.1079 14.407 19.1866 14.407 19.2994C14.407 19.4122 14.4155 19.4909 14.4283 19.4909C14.441 19.4909 14.4496 19.5484 14.4496 19.6186C14.4496 19.6889 14.4581 19.7463 14.4708 19.7463C14.4836 19.7463 14.4921 19.8038 14.4921 19.874C14.4921 19.9443 14.5006 20.0017 14.5134 20.0017C14.5262 20.0017 14.5347 20.0592 14.5347 20.1294C14.5347 20.1997 14.5432 20.2571 14.556 20.2571C14.5687 20.2571 14.5773 20.304 14.5773 20.3635C14.5773 20.421 14.5879 20.47 14.5985 20.47C14.6113 20.47 14.6198 20.5168 14.6198 20.5764C14.6198 20.6338 14.6305 20.6828 14.6411 20.6828C14.6539 20.6828 14.6624 20.7211 14.6624 20.7679C14.6624 20.8147 14.673 20.8531 14.6837 20.8531C14.6964 20.8531 14.705 20.8914 14.705 20.9382C14.705 20.985 14.7156 21.0233 14.7262 21.0233C14.739 21.0233 14.7475 21.0616 14.7475 21.1084C14.7475 21.1553 14.7582 21.1936 14.7688 21.1936C14.7816 21.1936 14.7901 21.2319 14.7901 21.2787C14.7901 21.3255 14.8007 21.3638 14.8114 21.3638C14.8241 21.3638 14.8327 21.4022 14.8327 21.449C14.8327 21.4958 14.8433 21.5341 14.8539 21.5341C14.8667 21.5341 14.8752 21.5618 14.8752 21.598C14.8752 21.632 14.8859 21.6618 14.8965 21.6618C14.9093 21.6618 14.9178 21.6895 14.9178 21.7257C14.9178 21.7597 14.9284 21.7895 14.9391 21.7895C14.9518 21.7895 14.9604 21.8172 14.9604 21.8534C14.9604 21.8874 14.971 21.9172 14.9816 21.9172C14.9944 21.9172 15.0029 21.9449 15.0029 21.981C15.0029 22.0151 15.0136 22.0449 15.0242 22.0449C15.037 22.0449 15.0455 22.0832 15.0455 22.13C15.0455 22.1769 15.0561 22.2152 15.0668 22.2152C15.0795 22.2152 15.088 22.2428 15.088 22.279C15.088 22.3131 15.0987 22.3429 15.1093 22.3429C15.1221 22.3429 15.1306 22.362 15.1306 22.3854C15.1306 22.4088 15.1413 22.428 15.1519 22.428C15.1647 22.428 15.1732 22.4557 15.1732 22.4918C15.1732 22.5259 15.1838 22.5557 15.1945 22.5557C15.2072 22.5557 15.2157 22.5748 15.2157 22.5983C15.2157 22.6217 15.2264 22.6408 15.237 22.6408C15.2498 22.6408 15.2583 22.6685 15.2583 22.7047C15.2583 22.7387 15.269 22.7685 15.2796 22.7685C15.2924 22.7685 15.3009 22.7877 15.3009 22.8111C15.3009 22.8345 15.3115 22.8537 15.3222 22.8537C15.3349 22.8537 15.3434 22.8813 15.3434 22.9175C15.3434 22.9516 15.3541 22.9813 15.3647 22.9813C15.3775 22.9813 15.386 23.0005 15.386 23.0239C15.386 23.0473 15.3967 23.0665 15.4073 23.0665C15.4201 23.0665 15.4286 23.0941 15.4286 23.1303C15.4286 23.1644 15.4392 23.1942 15.4499 23.1942C15.4626 23.1942 15.4711 23.2133 15.4711 23.2367C15.4711 23.2602 15.4818 23.2793 15.4924 23.2793C15.5052 23.2793 15.5137 23.2985 15.5137 23.3219C15.5137 23.3453 15.5243 23.3644 15.535 23.3644C15.5478 23.3644 15.5563 23.3836 15.5563 23.407C15.5563 23.4304 15.5669 23.4496 15.5776 23.4496C15.5903 23.4496 15.5988 23.4687 15.5988 23.4921C15.5988 23.5155 15.6095 23.5347 15.6201 23.5347C15.6329 23.5347 15.6414 23.5539 15.6414 23.5773C15.6414 23.6007 15.652 23.6198 15.6627 23.6198C15.6755 23.6198 15.684 23.639 15.684 23.6624C15.684 23.6858 15.6946 23.705 15.7053 23.705C15.718 23.705 15.7265 23.7241 15.7265 23.7475C15.7265 23.7709 15.7372 23.7901 15.7478 23.7901C15.7606 23.7901 15.7691 23.8093 15.7691 23.8327C15.7691 23.8561 15.7797 23.8752 15.7904 23.8752C15.8032 23.8752 15.8117 23.8944 15.8117 23.9178C15.8117 23.9412 15.8223 23.9604 15.833 23.9604C15.8457 23.9604 15.8542 23.9795 15.8542 24.0029C15.8542 24.0263 15.8649 24.0455 15.8755 24.0455C15.8883 24.0455 15.8968 24.0646 15.8968 24.0881C15.8968 24.1115 15.9074 24.1306 15.9181 24.1306C15.9309 24.1306 15.9394 24.1498 15.9394 24.1732C15.9394 24.1966 15.95 24.2158 15.9606 24.2158C15.9734 24.2158 15.9819 24.2328 15.9819 24.2541C15.9819 24.2754 16.0011 24.3051 16.0245 24.3222C16.0479 24.3392 16.0671 24.369 16.0671 24.3903C16.0671 24.4116 16.0777 24.4286 16.0883 24.4286C16.1011 24.4286 16.1096 24.4456 16.1096 24.4669C16.1096 24.4882 16.1288 24.518 16.1522 24.535C16.1756 24.552 16.1948 24.5818 16.1948 24.6031C16.1948 24.6244 16.2054 24.6414 16.216 24.6414C16.2288 24.6414 16.2373 24.6584 16.2373 24.6797C16.2373 24.701 16.2565 24.7308 16.2799 24.7478C16.3033 24.7649 16.3225 24.7947 16.3225 24.8159C16.3225 24.8372 16.3331 24.8542 16.3437 24.8542C16.3565 24.8542 16.365 24.8691 16.365 24.8883C16.365 24.9075 16.3927 24.95 16.4289 24.9819C16.4651 25.0139 16.4927 25.0522 16.4927 25.0671C16.4927 25.082 16.5204 25.1203 16.5566 25.1522C16.5906 25.1841 16.6204 25.2224 16.6204 25.2373C16.6204 25.2522 16.6502 25.2905 16.6843 25.3225C16.7183 25.3544 16.7481 25.3948 16.7481 25.4119C16.7481 25.4268 16.7673 25.4544 16.7907 25.4715C16.8141 25.4885 16.8332 25.514 16.8332 25.531C16.8332 25.5459 16.8822 25.6055 16.9397 25.663C16.9993 25.7205 17.0461 25.7779 17.0461 25.7907C17.0461 25.8035 17.1227 25.8886 17.2163 25.9822C17.31 26.0759 17.3866 26.161 17.3866 26.1738C17.3866 26.2036 17.742 26.5569 17.7697 26.5569C17.7825 26.5569 17.8506 26.6143 17.9187 26.6846C17.9868 26.7548 18.0549 26.8123 18.0677 26.8123C18.0804 26.8123 18.1294 26.8506 18.1741 26.8974C18.2188 26.9442 18.2677 26.9825 18.2805 26.9825C18.2954 26.9825 18.3337 27.0102 18.3656 27.0464C18.3975 27.0804 18.438 27.1102 18.455 27.1102C18.4699 27.1102 18.4976 27.1294 18.5146 27.1528C18.5316 27.1762 18.5593 27.1954 18.5785 27.1954C18.5976 27.1954 18.6253 27.2145 18.6423 27.2379C18.6593 27.2613 18.687 27.2805 18.7061 27.2805C18.7253 27.2805 18.753 27.2997 18.77 27.3231C18.787 27.3465 18.8168 27.3656 18.8381 27.3656C18.8594 27.3656 18.8764 27.3741 18.8764 27.3869C18.8764 27.3976 18.8934 27.4082 18.9147 27.4082C18.936 27.4082 18.9658 27.4274 18.9828 27.4508C18.9999 27.4742 19.0296 27.4933 19.0509 27.4933C19.0722 27.4933 19.0892 27.5018 19.0892 27.5146C19.0892 27.5253 19.1084 27.5359 19.1318 27.5359C19.1552 27.5359 19.1744 27.5444 19.1744 27.5572C19.1744 27.5678 19.1935 27.5785 19.2169 27.5785C19.2404 27.5785 19.2595 27.587 19.2595 27.5997C19.2595 27.6104 19.2787 27.621 19.3021 27.621C19.3255 27.621 19.3446 27.6295 19.3446 27.6423C19.3446 27.653 19.3638 27.6636 19.3872 27.6636C19.4106 27.6636 19.4298 27.6721 19.4298 27.6849C19.4298 27.6955 19.4489 27.7062 19.4723 27.7062C19.4957 27.7062 19.5149 27.7147 19.5149 27.7274C19.5149 27.7381 19.5447 27.7487 19.5787 27.7487C19.6149 27.7487 19.6426 27.7572 19.6426 27.77C19.6426 27.7807 19.6618 27.7913 19.6852 27.7913C19.7086 27.7913 19.7277 27.7998 19.7277 27.8126C19.7277 27.8232 19.7575 27.8339 19.7916 27.8339C19.8278 27.8339 19.8554 27.8424 19.8554 27.8551C19.8554 27.8658 19.8746 27.8764 19.898 27.8764C19.9214 27.8764 19.9406 27.8849 19.9406 27.8977C19.9406 27.9083 19.9704 27.919 20.0044 27.919C20.0406 27.919 20.0683 27.9275 20.0683 27.9403C20.0683 27.9509 20.0981 27.9616 20.1321 27.9616C20.1683 27.9616 20.196 27.9701 20.196 27.9828C20.196 27.9935 20.2343 28.0041 20.2811 28.0041C20.3279 28.0041 20.3662 28.0126 20.3662 28.0254C20.3662 28.036 20.4045 28.0467 20.4513 28.0467C20.4982 28.0467 20.5365 28.0552 20.5365 28.068C20.5365 28.0786 20.5748 28.0893 20.6216 28.0893C20.6684 28.0893 20.7067 28.0978 20.7067 28.1105C20.7067 28.1233 20.7642 28.1318 20.8344 28.1318C20.9047 28.1318 20.9621 28.1403 20.9621 28.1531C20.9621 28.1659 21.0409 28.1744 21.1537 28.1744C21.2665 28.1744 21.3452 28.1829 21.3452 28.1957C21.3452 28.2063 21.3686 28.217 21.3984 28.217C21.4389 28.217 21.5198 28.2851 21.7283 28.4936C21.8794 28.6447 22.0135 28.7703 22.0263 28.7703C22.0391 28.7703 22.0965 28.8171 22.154 28.8767C22.2114 28.9342 22.2689 28.9831 22.2817 28.9831C22.2966 28.9831 22.3349 29.0108 22.3668 29.047C22.3987 29.081 22.4392 29.1108 22.4562 29.1108C22.4711 29.1108 22.4988 29.13 22.5158 29.1534C22.5328 29.1768 22.5605 29.196 22.5796 29.196C22.5988 29.196 22.6265 29.2151 22.6435 29.2385C22.6605 29.2619 22.6861 29.2811 22.7031 29.2811C22.718 29.2811 22.7542 29.3045 22.7818 29.3343L22.835 29.3854V30.8028V32.2181H22.0901C21.607 32.2181 21.3452 32.2267 21.3452 32.2394C21.3452 32.2501 21.3069 32.2607 21.2601 32.2607C21.2133 32.2607 21.175 32.2692 21.175 32.282C21.175 32.2926 21.1367 32.3033 21.0898 32.3033C21.043 32.3033 21.0047 32.3118 21.0047 32.3246C21.0047 32.3352 20.9856 32.3458 20.9621 32.3458C20.9387 32.3458 20.9196 32.3544 20.9196 32.3671C20.9196 32.3778 20.8919 32.3884 20.8557 32.3884C20.8217 32.3884 20.7919 32.3969 20.7919 32.4097C20.7919 32.4203 20.7727 32.431 20.7493 32.431C20.7259 32.431 20.7067 32.4395 20.7067 32.4523C20.7067 32.4629 20.6876 32.4735 20.6642 32.4735C20.6408 32.4735 20.6216 32.4821 20.6216 32.4948C20.6216 32.5055 20.6046 32.5161 20.5833 32.5161C20.562 32.5161 20.5322 32.5353 20.5152 32.5587C20.4982 32.5821 20.4705 32.6012 20.4556 32.6012C20.4386 32.6012 20.3981 32.6289 20.3662 32.6651C20.3343 32.6991 20.296 32.7289 20.2832 32.7289C20.2513 32.7289 19.9406 33.0397 19.9406 33.0716C19.9406 33.0844 19.9129 33.1227 19.8767 33.1546C19.8427 33.1865 19.8129 33.227 19.8129 33.244C19.8129 33.2589 19.7937 33.2865 19.7703 33.3036C19.7469 33.3206 19.7277 33.3504 19.7277 33.3717C19.7277 33.393 19.7192 33.41 19.7064 33.41C19.6958 33.41 19.6852 33.4291 19.6852 33.4526C19.6852 33.476 19.6767 33.4951 19.6639 33.4951C19.6532 33.4951 19.6426 33.5143 19.6426 33.5377C19.6426 33.5611 19.6341 33.5803 19.6213 33.5803C19.6107 33.5803 19.6 33.5994 19.6 33.6228C19.6 33.6462 19.5915 33.6654 19.5787 33.6654C19.5681 33.6654 19.5575 33.6931 19.5575 33.7292C19.5575 33.7633 19.549 33.7931 19.5362 33.7931C19.5255 33.7931 19.5149 33.8207 19.5149 33.8569C19.5149 33.891 19.5064 33.9208 19.4936 33.9208C19.483 33.9208 19.4723 33.9676 19.4723 34.0272C19.4723 34.0847 19.4638 34.1336 19.4511 34.1336C19.4383 34.1336 19.4298 34.2187 19.4298 34.3464C19.4298 34.4741 19.4213 34.5593 19.4085 34.5593C19.3957 34.5593 19.3872 34.7508 19.3872 35.0913V35.6234H19.3021C19.2552 35.6234 19.2169 35.6319 19.2169 35.6447C19.2169 35.6553 19.1893 35.666 19.1531 35.666C19.119 35.666 19.0892 35.6745 19.0892 35.6873C19.0892 35.6979 19.0743 35.7085 19.0573 35.7085C19.0148 35.7085 18.8338 35.8895 18.8338 35.932C18.8338 35.949 18.8253 35.9639 18.8126 35.9639C18.8019 35.9639 18.7913 35.9831 18.7913 36.0065C18.7913 36.0299 18.7828 36.0491 18.77 36.0491C18.7594 36.0491 18.7487 36.0874 18.7487 36.1342C18.7487 36.181 18.7402 36.2193 18.7274 36.2193C18.7168 36.2193 18.7061 36.2385 18.7061 36.2619C18.7061 36.2853 18.7168 36.3045 18.7274 36.3045C18.7402 36.3045 18.7487 36.3428 18.7487 36.3896C18.7487 36.4364 18.7594 36.4747 18.77 36.4747C18.7828 36.4747 18.7913 36.4939 18.7913 36.5173C18.7913 36.5407 18.8019 36.5599 18.8126 36.5599C18.8253 36.5599 18.8338 36.5748 18.8338 36.5918C18.8338 36.6344 19.0148 36.8153 19.0573 36.8153C19.0743 36.8153 19.0892 36.8238 19.0892 36.8365C19.0892 36.8472 19.119 36.8578 19.1531 36.8578C19.1893 36.8578 19.2169 36.8663 19.2169 36.8791C19.2169 36.894 21.2175 36.9004 25.1762 36.9004C29.1348 36.9004 31.1354 36.894 31.1354 36.8791C31.1354 36.8663 31.1652 36.8578 31.1992 36.8578C31.2354 36.8578 31.2631 36.8472 31.2631 36.8365C31.2631 36.8238 31.278 36.8153 31.295 36.8153C31.3376 36.8153 31.5185 36.6344 31.5185 36.5918C31.5185 36.5748 31.5291 36.5599 31.5398 36.5599C31.5525 36.5599 31.561 36.5407 31.561 36.5173C31.561 36.4939 31.5717 36.4747 31.5823 36.4747C31.5951 36.4747 31.6036 36.4364 31.6036 36.3896C31.6036 36.3428 31.6143 36.3045 31.6249 36.3045C31.6377 36.3045 31.6462 36.2853 31.6462 36.2619C31.6462 36.2385 31.6377 36.2193 31.6249 36.2193C31.6143 36.2193 31.6036 36.181 31.6036 36.1342C31.6036 36.0874 31.5951 36.0491 31.5823 36.0491C31.5717 36.0491 31.561 36.0299 31.561 36.0065C31.561 35.9831 31.5525 35.9639 31.5398 35.9639C31.5291 35.9639 31.5185 35.949 31.5185 35.932C31.5185 35.8895 31.3376 35.7085 31.295 35.7085C31.278 35.7085 31.2631 35.6979 31.2631 35.6873C31.2631 35.6745 31.2354 35.666 31.1992 35.666C31.1652 35.666 31.1354 35.6553 31.1354 35.6447C31.1354 35.6319 31.0971 35.6234 31.0503 35.6234H30.9651V35.0913C30.9651 34.7508 30.9566 34.5593 30.9438 34.5593C30.9311 34.5593 30.9226 34.4741 30.9226 34.3464C30.9226 34.2187 30.914 34.1336 30.9013 34.1336C30.8906 34.1336 30.88 34.0847 30.88 34.0272C30.88 33.9676 30.8715 33.9208 30.8587 33.9208C30.8481 33.9208 30.8374 33.891 30.8374 33.8569C30.8374 33.8207 30.8289 33.7931 30.8161 33.7931C30.8055 33.7931 30.7949 33.7633 30.7949 33.7292C30.7949 33.6931 30.7863 33.6654 30.7736 33.6654C30.7629 33.6654 30.7523 33.6462 30.7523 33.6228C30.7523 33.5994 30.7438 33.5803 30.731 33.5803C30.7204 33.5803 30.7097 33.5611 30.7097 33.5377C30.7097 33.5143 30.7012 33.4951 30.6884 33.4951C30.6778 33.4951 30.6672 33.476 30.6672 33.4526C30.6672 33.4291 30.6586 33.41 30.6459 33.41C30.6352 33.41 30.6246 33.393 30.6246 33.3717C30.6246 33.3504 30.6054 33.3206 30.582 33.3036C30.5586 33.2865 30.5395 33.2589 30.5395 33.244C30.5395 33.227 30.5097 33.1865 30.4756 33.1546C30.4416 33.1227 30.4118 33.0844 30.4118 33.0716C30.4118 33.0397 30.101 32.7289 30.0691 32.7289C30.0563 32.7289 30.018 32.6991 29.9861 32.6651C29.9542 32.6289 29.9137 32.6012 29.8967 32.6012C29.8818 32.6012 29.8542 32.5821 29.8371 32.5587C29.8201 32.5353 29.7903 32.5161 29.769 32.5161C29.7477 32.5161 29.7307 32.5055 29.7307 32.4948C29.7307 32.4821 29.7116 32.4735 29.6881 32.4735C29.6647 32.4735 29.6456 32.4629 29.6456 32.4523C29.6456 32.4395 29.6264 32.431 29.603 32.431C29.5796 32.431 29.5604 32.4203 29.5604 32.4097C29.5604 32.3969 29.5328 32.3884 29.4966 32.3884C29.4625 32.3884 29.4327 32.3778 29.4327 32.3671C29.4327 32.3544 29.4136 32.3458 29.3902 32.3458C29.3668 32.3458 29.3476 32.3352 29.3476 32.3246C29.3476 32.3118 29.3093 32.3033 29.2625 32.3033C29.2157 32.3033 29.1774 32.2926 29.1774 32.282C29.1774 32.2692 29.139 32.2607 29.0922 32.2607C29.0454 32.2607 29.0071 32.2501 29.0071 32.2394C29.0071 32.2267 28.7453 32.2181 28.2622 32.2181H27.5173V30.8028V29.3854L27.5705 29.3343C27.5982 29.3045 27.6343 29.2811 27.6492 29.2811C27.6663 29.2811 27.6918 29.2619 27.7088 29.2385C27.7259 29.2151 27.7535 29.196 27.7727 29.196C27.7918 29.196 27.8195 29.1768 27.8365 29.1534C27.8536 29.13 27.8812 29.1108 27.8961 29.1108C27.9131 29.1108 27.9536 29.081 27.9855 29.047C28.0174 29.0108 28.0557 28.9831 28.0706 28.9831C28.0834 28.9831 28.1409 28.9342 28.1983 28.8767C28.2558 28.8171 28.3133 28.7703 28.326 28.7703C28.3388 28.7703 28.4729 28.6447 28.624 28.4936C28.8326 28.2851 28.9134 28.217 28.9539 28.217C28.9837 28.217 29.0071 28.2063 29.0071 28.1957C29.0071 28.1829 29.0858 28.1744 29.1986 28.1744C29.3114 28.1744 29.3902 28.1659 29.3902 28.1531C29.3902 28.1403 29.4476 28.1318 29.5179 28.1318C29.5881 28.1318 29.6456 28.1233 29.6456 28.1105C29.6456 28.0978 29.6839 28.0893 29.7307 28.0893C29.7775 28.0893 29.8158 28.0786 29.8158 28.068C29.8158 28.0552 29.8542 28.0467 29.901 28.0467C29.9478 28.0467 29.9861 28.036 29.9861 28.0254C29.9861 28.0126 30.0244 28.0041 30.0712 28.0041C30.1181 28.0041 30.1564 27.9935 30.1564 27.9828C30.1564 27.9701 30.1862 27.9616 30.2202 27.9616C30.2564 27.9616 30.2841 27.9509 30.2841 27.9403C30.2841 27.9275 30.3139 27.919 30.3479 27.919C30.3841 27.919 30.4118 27.9083 30.4118 27.8977C30.4118 27.8849 30.4309 27.8764 30.4543 27.8764C30.4777 27.8764 30.4969 27.8658 30.4969 27.8551C30.4969 27.8424 30.5267 27.8339 30.5607 27.8339C30.5969 27.8339 30.6246 27.8232 30.6246 27.8126C30.6246 27.7998 30.6437 27.7913 30.6672 27.7913C30.6906 27.7913 30.7097 27.7807 30.7097 27.77C30.7097 27.7572 30.7395 27.7487 30.7736 27.7487C30.8098 27.7487 30.8374 27.7381 30.8374 27.7274C30.8374 27.7147 30.8566 27.7062 30.88 27.7062C30.9034 27.7062 30.9226 27.6955 30.9226 27.6849C30.9226 27.6721 30.9417 27.6636 30.9651 27.6636C30.9885 27.6636 31.0077 27.653 31.0077 27.6423C31.0077 27.6295 31.0268 27.621 31.0503 27.621C31.0737 27.621 31.0928 27.6104 31.0928 27.5997C31.0928 27.587 31.112 27.5785 31.1354 27.5785C31.1588 27.5785 31.178 27.5678 31.178 27.5572C31.178 27.5444 31.1971 27.5359 31.2205 27.5359C31.2439 27.5359 31.2631 27.5253 31.2631 27.5146C31.2631 27.5018 31.2801 27.4933 31.3014 27.4933C31.3227 27.4933 31.3525 27.4742 31.3695 27.4508C31.3865 27.4274 31.4163 27.4082 31.4376 27.4082C31.4589 27.4082 31.4759 27.3976 31.4759 27.3869C31.4759 27.3741 31.4929 27.3656 31.5142 27.3656C31.5355 27.3656 31.5653 27.3465 31.5823 27.3231C31.5994 27.2997 31.627 27.2805 31.6462 27.2805C31.6653 27.2805 31.693 27.2613 31.71 27.2379C31.7271 27.2145 31.7547 27.1954 31.7739 27.1954C31.793 27.1954 31.8207 27.1762 31.8377 27.1528C31.8547 27.1294 31.8824 27.1102 31.8973 27.1102C31.9143 27.1102 31.9548 27.0804 31.9867 27.0464C32.0186 27.0102 32.0569 26.9825 32.0718 26.9825C32.0846 26.9825 32.1336 26.9442 32.1782 26.8974C32.2229 26.8506 32.2719 26.8123 32.2847 26.8123C32.2974 26.8123 32.3655 26.7548 32.4336 26.6846C32.5017 26.6143 32.5699 26.5569 32.5826 26.5569C32.6103 26.5569 32.9657 26.2036 32.9657 26.1738C32.9657 26.161 33.0423 26.0759 33.136 25.9822C33.2296 25.8886 33.3062 25.8035 33.3062 25.7907C33.3062 25.7779 33.3552 25.7205 33.4127 25.663C33.4701 25.6055 33.5191 25.5459 33.5191 25.531C33.5191 25.514 33.5382 25.4885 33.5616 25.4715C33.5851 25.4544 33.6042 25.4268 33.6042 25.4119C33.6042 25.3948 33.6319 25.3544 33.6681 25.3225C33.7021 25.2905 33.7319 25.2522 33.7319 25.2373C33.7319 25.2224 33.7617 25.1841 33.7958 25.1522C33.8319 25.1203 33.8596 25.082 33.8596 25.0671C33.8596 25.0522 33.8894 25.0139 33.9235 24.9819C33.9596 24.95 33.9873 24.9075 33.9873 24.8883C33.9873 24.8691 33.9979 24.8542 34.0086 24.8542C34.0214 24.8542 34.0299 24.8372 34.0299 24.8159C34.0299 24.7947 34.049 24.7649 34.0724 24.7478C34.0958 24.7308 34.115 24.701 34.115 24.6797C34.115 24.6584 34.1256 24.6414 34.1363 24.6414C34.149 24.6414 34.1576 24.6244 34.1576 24.6031C34.1576 24.5818 34.1767 24.552 34.2001 24.535C34.2235 24.518 34.2427 24.4882 34.2427 24.4669C34.2427 24.4456 34.2533 24.4286 34.264 24.4286C34.2767 24.4286 34.2853 24.4116 34.2853 24.3903C34.2853 24.369 34.3044 24.3392 34.3278 24.3222C34.3512 24.3051 34.3704 24.2754 34.3704 24.2541C34.3704 24.2328 34.381 24.2158 34.3917 24.2158C34.4044 24.2158 34.413 24.1966 34.413 24.1732C34.413 24.1498 34.4236 24.1306 34.4342 24.1306C34.447 24.1306 34.4555 24.1115 34.4555 24.0881C34.4555 24.0646 34.4662 24.0455 34.4768 24.0455C34.4896 24.0455 34.4981 24.0263 34.4981 24.0029C34.4981 23.9795 34.5087 23.9604 34.5194 23.9604C34.5321 23.9604 34.5407 23.9412 34.5407 23.9178C34.5407 23.8944 34.5513 23.8752 34.5619 23.8752C34.5747 23.8752 34.5832 23.8561 34.5832 23.8327C34.5832 23.8093 34.5939 23.7901 34.6045 23.7901C34.6173 23.7901 34.6258 23.7709 34.6258 23.7475C34.6258 23.7241 34.6364 23.705 34.6471 23.705C34.6598 23.705 34.6684 23.6858 34.6684 23.6624C34.6684 23.639 34.679 23.6198 34.6896 23.6198C34.7024 23.6198 34.7109 23.6007 34.7109 23.5773C34.7109 23.5539 34.7216 23.5347 34.7322 23.5347C34.745 23.5347 34.7535 23.5155 34.7535 23.4921C34.7535 23.4687 34.7641 23.4496 34.7748 23.4496C34.7875 23.4496 34.7961 23.4304 34.7961 23.407C34.7961 23.3836 34.8067 23.3644 34.8173 23.3644C34.8301 23.3644 34.8386 23.3453 34.8386 23.3219C34.8386 23.2985 34.8493 23.2793 34.8599 23.2793C34.8727 23.2793 34.8812 23.2602 34.8812 23.2367C34.8812 23.2133 34.8918 23.1942 34.9025 23.1942C34.9152 23.1942 34.9237 23.1644 34.9237 23.1303C34.9237 23.0941 34.9344 23.0665 34.945 23.0665C34.9578 23.0665 34.9663 23.0473 34.9663 23.0239C34.9663 23.0005 34.977 22.9813 34.9876 22.9813C35.0004 22.9813 35.0089 22.9516 35.0089 22.9175C35.0089 22.8813 35.0195 22.8537 35.0302 22.8537C35.0429 22.8537 35.0514 22.8345 35.0514 22.8111C35.0514 22.7877 35.0621 22.7685 35.0727 22.7685C35.0855 22.7685 35.094 22.7387 35.094 22.7047C35.094 22.6685 35.1047 22.6408 35.1153 22.6408C35.1281 22.6408 35.1366 22.6217 35.1366 22.5983C35.1366 22.5748 35.1472 22.5557 35.1579 22.5557C35.1706 22.5557 35.1791 22.5259 35.1791 22.4918C35.1791 22.4557 35.1898 22.428 35.2004 22.428C35.2132 22.428 35.2217 22.4088 35.2217 22.3854C35.2217 22.362 35.2324 22.3429 35.243 22.3429C35.2558 22.3429 35.2643 22.3131 35.2643 22.279C35.2643 22.2428 35.2749 22.2152 35.2856 22.2152C35.2983 22.2152 35.3068 22.1769 35.3068 22.13C35.3068 22.0832 35.3175 22.0449 35.3281 22.0449C35.3409 22.0449 35.3494 22.0151 35.3494 21.981C35.3494 21.9449 35.36 21.9172 35.3707 21.9172C35.3835 21.9172 35.392 21.8874 35.392 21.8534C35.392 21.8172 35.4026 21.7895 35.4133 21.7895C35.426 21.7895 35.4345 21.7597 35.4345 21.7257C35.4345 21.6895 35.4452 21.6618 35.4558 21.6618C35.4686 21.6618 35.4771 21.632 35.4771 21.598C35.4771 21.5618 35.4877 21.5341 35.4984 21.5341C35.5112 21.5341 35.5197 21.4958 35.5197 21.449C35.5197 21.4022 35.5303 21.3638 35.541 21.3638C35.5537 21.3638 35.5622 21.3255 35.5622 21.2787C35.5622 21.2319 35.5729 21.1936 35.5835 21.1936C35.5963 21.1936 35.6048 21.1553 35.6048 21.1084C35.6048 21.0616 35.6154 21.0233 35.6261 21.0233C35.6389 21.0233 35.6474 20.985 35.6474 20.9382C35.6474 20.8914 35.658 20.8531 35.6687 20.8531C35.6814 20.8531 35.6899 20.8147 35.6899 20.7679C35.6899 20.7211 35.7006 20.6828 35.7112 20.6828C35.724 20.6828 35.7325 20.6338 35.7325 20.5764C35.7325 20.5168 35.7431 20.47 35.7538 20.47C35.7666 20.47 35.7751 20.421 35.7751 20.3635C35.7751 20.304 35.7857 20.2571 35.7963 20.2571C35.8091 20.2571 35.8176 20.1997 35.8176 20.1294C35.8176 20.0592 35.8261 20.0017 35.8389 20.0017C35.8517 20.0017 35.8602 19.9443 35.8602 19.874C35.8602 19.8038 35.8687 19.7463 35.8815 19.7463C35.8943 19.7463 35.9028 19.6889 35.9028 19.6186C35.9028 19.5484 35.9113 19.4909 35.924 19.4909C35.9368 19.4909 35.9453 19.4122 35.9453 19.2994C35.9453 19.1866 35.9538 19.1079 35.9666 19.1079C35.9794 19.1079 35.9879 19.0227 35.9879 18.895C35.9879 18.7673 35.9964 18.6822 36.0092 18.6822C36.0219 18.6822 36.0305 18.5481 36.0305 18.3204C36.0305 18.0927 36.039 17.9586 36.0517 17.9586C36.0645 17.9586 36.073 17.8096 36.073 17.5542C36.073 17.2988 36.0645 17.1498 36.0517 17.1498C36.0411 17.1498 36.0305 17.1307 36.0305 17.1073C36.0305 17.0838 36.0219 17.0647 36.0092 17.0647C35.9985 17.0647 35.9879 17.0455 35.9879 17.0221C35.9879 16.9987 35.9794 16.9796 35.9666 16.9796C35.956 16.9796 35.9453 16.9647 35.9453 16.9476C35.9453 16.9072 35.8517 16.8093 35.8134 16.8093C35.7963 16.8093 35.7708 16.7901 35.7538 16.7667C35.7368 16.7412 35.6984 16.7242 35.6644 16.7242C35.6325 16.7242 35.6048 16.7135 35.6048 16.7029C35.6048 16.688 35.094 16.6816 34.115 16.6816H32.6252V16.4049C32.6252 16.2347 32.6337 16.1282 32.6465 16.1282C32.6592 16.1282 32.6678 16.0367 32.6678 15.8941C32.6678 15.7515 32.6592 15.66 32.6465 15.66C32.6358 15.66 32.6252 15.6217 32.6252 15.5749C32.6252 15.5281 32.6167 15.4898 32.6039 15.4898C32.5933 15.4898 32.5826 15.4749 32.5826 15.4578C32.5826 15.4153 32.3592 15.1918 32.3166 15.1918C32.2996 15.1918 32.2847 15.1812 32.2847 15.1705C32.2847 15.1577 32.257 15.1492 32.2208 15.1492C32.1868 15.1492 32.157 15.1386 32.157 15.1279C32.157 15.113 29.8158 15.1067 25.1762 15.1067C20.5365 15.1067 18.1954 15.113 18.1954 15.1279ZM31.3482 16.8519C31.3482 17.1498 31.3397 17.3201 31.3269 17.3201C31.3142 17.3201 31.3056 17.4329 31.3056 17.618C31.3056 17.8032 31.2971 17.916 31.2844 17.916C31.2716 17.916 31.2631 18.0075 31.2631 18.1501C31.2631 18.2927 31.2546 18.3842 31.2418 18.3842C31.229 18.3842 31.2205 18.4694 31.2205 18.5971C31.2205 18.7248 31.212 18.8099 31.1992 18.8099C31.1865 18.8099 31.178 18.8737 31.178 18.9589C31.178 19.044 31.1694 19.1079 31.1567 19.1079C31.1439 19.1079 31.1354 19.1781 31.1354 19.2781C31.1354 19.3781 31.1269 19.4484 31.1141 19.4484C31.1013 19.4484 31.0928 19.5122 31.0928 19.5974C31.0928 19.6825 31.0843 19.7463 31.0715 19.7463C31.0588 19.7463 31.0503 19.8038 31.0503 19.874C31.0503 19.9443 31.0417 20.0017 31.029 20.0017C31.0162 20.0017 31.0077 20.0592 31.0077 20.1294C31.0077 20.1997 30.9992 20.2571 30.9864 20.2571C30.9758 20.2571 30.9651 20.304 30.9651 20.3635C30.9651 20.421 30.9566 20.47 30.9438 20.47C30.9332 20.47 30.9226 20.5168 30.9226 20.5764C30.9226 20.6338 30.914 20.6828 30.9013 20.6828C30.8906 20.6828 30.88 20.7296 30.88 20.7892C30.88 20.8467 30.8715 20.8956 30.8587 20.8956C30.8481 20.8956 30.8374 20.9424 30.8374 21.002C30.8374 21.0595 30.8289 21.1084 30.8161 21.1084C30.8055 21.1084 30.7949 21.1468 30.7949 21.1936C30.7949 21.2404 30.7863 21.2787 30.7736 21.2787C30.7629 21.2787 30.7523 21.317 30.7523 21.3638C30.7523 21.4107 30.7438 21.449 30.731 21.449C30.7204 21.449 30.7097 21.4873 30.7097 21.5341C30.7097 21.5809 30.7012 21.6192 30.6884 21.6192C30.6778 21.6192 30.6672 21.6575 30.6672 21.7044C30.6672 21.7512 30.6586 21.7895 30.6459 21.7895C30.6352 21.7895 30.6246 21.8278 30.6246 21.8746C30.6246 21.9215 30.6161 21.9598 30.6033 21.9598C30.5927 21.9598 30.582 21.9981 30.582 22.0449C30.582 22.0917 30.5735 22.13 30.5607 22.13C30.5501 22.13 30.5395 22.1683 30.5395 22.2152C30.5395 22.262 30.531 22.3003 30.5182 22.3003C30.5075 22.3003 30.4969 22.328 30.4969 22.3641C30.4969 22.3982 30.4884 22.428 30.4756 22.428C30.465 22.428 30.4543 22.4557 30.4543 22.4918C30.4543 22.5259 30.4458 22.5557 30.433 22.5557C30.4224 22.5557 30.4118 22.594 30.4118 22.6408C30.4118 22.6876 30.4033 22.726 30.3905 22.726C30.3798 22.726 30.3692 22.7536 30.3692 22.7898C30.3692 22.8239 30.3607 22.8537 30.3479 22.8537C30.3373 22.8537 30.3266 22.8813 30.3266 22.9175C30.3266 22.9516 30.3181 22.9813 30.3054 22.9813C30.2947 22.9813 30.2841 23.009 30.2841 23.0452C30.2841 23.0792 30.2756 23.109 30.2628 23.109C30.2521 23.109 30.2415 23.1474 30.2415 23.1942C30.2415 23.241 30.233 23.2793 30.2202 23.2793C30.2096 23.2793 30.1989 23.2985 30.1989 23.3219C30.1989 23.3453 30.1904 23.3644 30.1777 23.3644C30.167 23.3644 30.1564 23.3921 30.1564 23.4283C30.1564 23.4623 30.1479 23.4921 30.1351 23.4921C30.1244 23.4921 30.1138 23.5113 30.1138 23.5347C30.1138 23.5581 30.1053 23.5773 30.0925 23.5773C30.0819 23.5773 30.0712 23.6049 30.0712 23.6411C30.0712 23.6752 30.0627 23.705 30.05 23.705C30.0393 23.705 30.0287 23.7326 30.0287 23.7688C30.0287 23.8029 30.0202 23.8327 30.0074 23.8327C29.9967 23.8327 29.9861 23.8518 29.9861 23.8752C29.9861 23.8986 29.9776 23.9178 29.9648 23.9178C29.9542 23.9178 29.9435 23.9455 29.9435 23.9816C29.9435 24.0157 29.935 24.0455 29.9223 24.0455C29.9116 24.0455 29.901 24.0732 29.901 24.1093C29.901 24.1434 29.8925 24.1732 29.8797 24.1732C29.8691 24.1732 29.8584 24.1923 29.8584 24.2158C29.8584 24.2392 29.8499 24.2583 29.8371 24.2583C29.8265 24.2583 29.8158 24.2775 29.8158 24.3009C29.8158 24.3243 29.8073 24.3435 29.7946 24.3435C29.7839 24.3435 29.7733 24.3626 29.7733 24.386C29.7733 24.4094 29.7648 24.4286 29.752 24.4286C29.7414 24.4286 29.7307 24.4563 29.7307 24.4924C29.7307 24.5265 29.7222 24.5563 29.7094 24.5563C29.6988 24.5563 29.6881 24.5754 29.6881 24.5989C29.6881 24.6223 29.6796 24.6414 29.6669 24.6414C29.6562 24.6414 29.6456 24.6606 29.6456 24.684C29.6456 24.7074 29.6371 24.7265 29.6243 24.7265C29.6137 24.7265 29.603 24.7457 29.603 24.7691C29.603 24.7925 29.5945 24.8117 29.5817 24.8117C29.5711 24.8117 29.5604 24.8308 29.5604 24.8542C29.5604 24.8777 29.5519 24.8968 29.5392 24.8968C29.5285 24.8968 29.5179 24.9245 29.5179 24.9607C29.5179 24.9947 29.5094 25.0245 29.4966 25.0245C29.486 25.0245 29.4753 25.0437 29.4753 25.0671C29.4753 25.0905 29.4668 25.1096 29.454 25.1096C29.4434 25.1096 29.4327 25.1288 29.4327 25.1522C29.4327 25.1756 29.4242 25.1948 29.4115 25.1948C29.4008 25.1948 29.3902 25.2139 29.3902 25.2373C29.3902 25.2608 29.3817 25.2799 29.3689 25.2799C29.3583 25.2799 29.3476 25.2969 29.3476 25.3182C29.3476 25.3395 29.3285 25.3693 29.3051 25.3863C29.2816 25.4033 29.2625 25.4331 29.2625 25.4544C29.2625 25.4757 29.254 25.4927 29.2412 25.4927C29.2306 25.4927 29.2199 25.5119 29.2199 25.5353C29.2199 25.5587 29.2114 25.5779 29.1986 25.5779C29.188 25.5779 29.1774 25.597 29.1774 25.6204C29.1774 25.6438 29.1688 25.663 29.1561 25.663C29.1454 25.663 29.1348 25.6822 29.1348 25.7056C29.1348 25.729 29.1263 25.7481 29.1135 25.7481C29.1029 25.7481 29.0922 25.7652 29.0922 25.7864C29.0922 25.8077 29.0731 25.8375 29.0497 25.8545C29.0262 25.8716 29.0071 25.8992 29.0071 25.9184C29.0071 25.9375 28.9879 25.9652 28.9645 25.9822C28.9411 25.9993 28.922 26.0291 28.922 26.0503C28.922 26.0716 28.9134 26.0887 28.9007 26.0887C28.89 26.0887 28.8794 26.1057 28.8794 26.127C28.8794 26.1482 28.8602 26.178 28.8368 26.1951C28.8134 26.2121 28.7943 26.2398 28.7943 26.2589C28.7943 26.2781 28.7751 26.3057 28.7517 26.3228C28.7283 26.3398 28.7091 26.3675 28.7091 26.3866C28.7091 26.4058 28.69 26.4334 28.6666 26.4505C28.6432 26.4675 28.624 26.4952 28.624 26.5143C28.624 26.5335 28.6048 26.5611 28.5814 26.5782C28.558 26.5952 28.5389 26.6229 28.5389 26.6378C28.5389 26.6527 28.5006 26.7037 28.4537 26.7484C28.4069 26.7931 28.3686 26.8421 28.3686 26.8548C28.3686 26.8697 28.3388 26.9081 28.3048 26.94C28.2707 26.9719 28.2409 27.0102 28.2409 27.023C28.2409 27.0379 28.1728 27.1145 28.0919 27.1954C28.011 27.2762 27.9429 27.3529 27.9429 27.3656C27.9429 27.3954 27.6322 27.7062 27.6024 27.7062C27.5896 27.7062 27.5215 27.7636 27.4534 27.8339C27.3853 27.9041 27.3172 27.9616 27.3045 27.9616C27.2896 27.9616 27.2512 27.9892 27.2193 28.0254C27.1874 28.0595 27.1491 28.0893 27.1342 28.0893C27.1193 28.0893 27.081 28.1169 27.0491 28.1531C27.0171 28.1872 26.9746 28.217 26.9554 28.217C26.9363 28.217 26.9214 28.2255 26.9214 28.2382C26.9214 28.2489 26.9043 28.2595 26.8831 28.2595C26.8618 28.2595 26.832 28.2787 26.8149 28.3021C26.7979 28.3255 26.7681 28.3446 26.7468 28.3446C26.7256 28.3446 26.7085 28.3532 26.7085 28.3659C26.7085 28.3766 26.6894 28.3872 26.666 28.3872C26.6426 28.3872 26.6234 28.3957 26.6234 28.4085C26.6234 28.4191 26.6042 28.4298 26.5808 28.4298C26.5574 28.4298 26.5383 28.4383 26.5383 28.4511C26.5383 28.4617 26.5191 28.4723 26.4957 28.4723C26.4723 28.4723 26.4531 28.4809 26.4531 28.4936C26.4531 28.5043 26.434 28.5149 26.4106 28.5149C26.3872 28.5149 26.368 28.5234 26.368 28.5362C26.368 28.5468 26.3403 28.5575 26.3042 28.5575C26.2701 28.5575 26.2403 28.566 26.2403 28.5788C26.2403 28.5894 26.2126 28.6 26.1765 28.6C26.1424 28.6 26.1126 28.6086 26.1126 28.6213C26.1126 28.632 26.0849 28.6426 26.0488 28.6426C26.0147 28.6426 25.9849 28.6511 25.9849 28.6639C25.9849 28.6745 25.9466 28.6852 25.8998 28.6852C25.853 28.6852 25.8147 28.6937 25.8147 28.7065C25.8147 28.7171 25.7678 28.7277 25.7082 28.7277C25.6508 28.7277 25.6018 28.7363 25.6018 28.749C25.6018 28.7618 25.4465 28.7703 25.1762 28.7703C24.9059 28.7703 24.7505 28.7618 24.7505 28.749C24.7505 28.7363 24.7037 28.7277 24.6441 28.7277C24.5866 28.7277 24.5377 28.7171 24.5377 28.7065C24.5377 28.6937 24.4994 28.6852 24.4525 28.6852C24.4057 28.6852 24.3674 28.6745 24.3674 28.6639C24.3674 28.6511 24.3397 28.6426 24.3036 28.6426C24.2695 28.6426 24.2397 28.632 24.2397 28.6213C24.2397 28.6086 24.212 28.6 24.1759 28.6C24.1418 28.6 24.112 28.5894 24.112 28.5788C24.112 28.566 24.0843 28.5575 24.0482 28.5575C24.0141 28.5575 23.9843 28.5468 23.9843 28.5362C23.9843 28.5234 23.9652 28.5149 23.9418 28.5149C23.9183 28.5149 23.8992 28.5043 23.8992 28.4936C23.8992 28.4809 23.88 28.4723 23.8566 28.4723C23.8332 28.4723 23.8141 28.4617 23.8141 28.4511C23.8141 28.4383 23.7949 28.4298 23.7715 28.4298C23.7481 28.4298 23.7289 28.4191 23.7289 28.4085C23.7289 28.3957 23.7098 28.3872 23.6864 28.3872C23.6629 28.3872 23.6438 28.3766 23.6438 28.3659C23.6438 28.3532 23.6268 28.3446 23.6055 28.3446C23.5842 28.3446 23.5544 28.3255 23.5374 28.3021C23.5203 28.2787 23.4906 28.2595 23.4693 28.2595C23.448 28.2595 23.431 28.2489 23.431 28.2382C23.431 28.2255 23.4161 28.217 23.3969 28.217C23.3778 28.217 23.3352 28.1872 23.3033 28.1531C23.2713 28.1169 23.233 28.0893 23.2181 28.0893C23.2032 28.0893 23.1649 28.0595 23.133 28.0254C23.1011 27.9892 23.0628 27.9616 23.0479 27.9616C23.0351 27.9616 22.967 27.9041 22.8989 27.8339C22.8308 27.7636 22.7627 27.7062 22.7499 27.7062C22.7201 27.7062 22.4094 27.3954 22.4094 27.3656C22.4094 27.3529 22.3434 27.2762 22.2604 27.1954C22.1795 27.1145 22.1114 27.0379 22.1114 27.023C22.1114 27.0102 22.0816 26.9719 22.0476 26.94C22.0114 26.9081 21.9837 26.8697 21.9837 26.8548C21.9837 26.8421 21.9454 26.7931 21.8986 26.7484C21.8518 26.7037 21.8135 26.6527 21.8135 26.6378C21.8135 26.6229 21.7943 26.5952 21.7709 26.5782C21.7475 26.5611 21.7283 26.5335 21.7283 26.5143C21.7283 26.4952 21.7092 26.4675 21.6858 26.4505C21.6623 26.4334 21.6432 26.4058 21.6432 26.3866C21.6432 26.3675 21.624 26.3398 21.6006 26.3228C21.5772 26.3057 21.5581 26.2781 21.5581 26.2589C21.5581 26.2398 21.5389 26.2121 21.5155 26.1951C21.4921 26.178 21.4729 26.1482 21.4729 26.127C21.4729 26.1057 21.4644 26.0887 21.4516 26.0887C21.441 26.0887 21.4304 26.0716 21.4304 26.0503C21.4304 26.0291 21.4112 25.9993 21.3878 25.9822C21.3644 25.9652 21.3452 25.9375 21.3452 25.9184C21.3452 25.8992 21.3261 25.8716 21.3027 25.8545C21.2793 25.8375 21.2601 25.8077 21.2601 25.7864C21.2601 25.7652 21.2516 25.7481 21.2388 25.7481C21.2282 25.7481 21.2175 25.729 21.2175 25.7056C21.2175 25.6822 21.209 25.663 21.1963 25.663C21.1856 25.663 21.175 25.6438 21.175 25.6204C21.175 25.597 21.1665 25.5779 21.1537 25.5779C21.143 25.5779 21.1324 25.5587 21.1324 25.5353C21.1324 25.5119 21.1239 25.4927 21.1111 25.4927C21.1005 25.4927 21.0898 25.4757 21.0898 25.4544C21.0898 25.4331 21.0707 25.4033 21.0473 25.3863C21.0239 25.3693 21.0047 25.3395 21.0047 25.3182C21.0047 25.2969 20.9962 25.2799 20.9834 25.2799C20.9728 25.2799 20.9621 25.2608 20.9621 25.2373C20.9621 25.2139 20.9536 25.1948 20.9409 25.1948C20.9302 25.1948 20.9196 25.1756 20.9196 25.1522C20.9196 25.1288 20.9111 25.1096 20.8983 25.1096C20.8876 25.1096 20.877 25.0905 20.877 25.0671C20.877 25.0437 20.8685 25.0245 20.8557 25.0245C20.8451 25.0245 20.8344 24.9947 20.8344 24.9607C20.8344 24.9245 20.8259 24.8968 20.8132 24.8968C20.8025 24.8968 20.7919 24.8777 20.7919 24.8542C20.7919 24.8308 20.7834 24.8117 20.7706 24.8117C20.76 24.8117 20.7493 24.7925 20.7493 24.7691C20.7493 24.7457 20.7408 24.7265 20.728 24.7265C20.7174 24.7265 20.7067 24.7074 20.7067 24.684C20.7067 24.6606 20.6982 24.6414 20.6855 24.6414C20.6748 24.6414 20.6642 24.6223 20.6642 24.5989C20.6642 24.5754 20.6557 24.5563 20.6429 24.5563C20.6323 24.5563 20.6216 24.5265 20.6216 24.4924C20.6216 24.4563 20.6131 24.4286 20.6003 24.4286C20.5897 24.4286 20.579 24.4094 20.579 24.386C20.579 24.3626 20.5705 24.3435 20.5578 24.3435C20.5471 24.3435 20.5365 24.3243 20.5365 24.3009C20.5365 24.2775 20.528 24.2583 20.5152 24.2583C20.5046 24.2583 20.4939 24.2392 20.4939 24.2158C20.4939 24.1923 20.4854 24.1732 20.4726 24.1732C20.462 24.1732 20.4513 24.1434 20.4513 24.1093C20.4513 24.0732 20.4428 24.0455 20.4301 24.0455C20.4194 24.0455 20.4088 24.0157 20.4088 23.9816C20.4088 23.9455 20.4003 23.9178 20.3875 23.9178C20.3769 23.9178 20.3662 23.8986 20.3662 23.8752C20.3662 23.8518 20.3577 23.8327 20.3449 23.8327C20.3343 23.8327 20.3237 23.8029 20.3237 23.7688C20.3237 23.7326 20.3151 23.705 20.3024 23.705C20.2917 23.705 20.2811 23.6752 20.2811 23.6411C20.2811 23.6049 20.2726 23.5773 20.2598 23.5773C20.2492 23.5773 20.2385 23.5581 20.2385 23.5347C20.2385 23.5113 20.23 23.4921 20.2172 23.4921C20.2066 23.4921 20.196 23.4623 20.196 23.4283C20.196 23.3921 20.1874 23.3644 20.1747 23.3644C20.164 23.3644 20.1534 23.3453 20.1534 23.3219C20.1534 23.2985 20.1449 23.2793 20.1321 23.2793C20.1215 23.2793 20.1108 23.241 20.1108 23.1942C20.1108 23.1474 20.1023 23.109 20.0895 23.109C20.0789 23.109 20.0683 23.0792 20.0683 23.0452C20.0683 23.009 20.0597 22.9813 20.047 22.9813C20.0363 22.9813 20.0257 22.9516 20.0257 22.9175C20.0257 22.8813 20.0172 22.8537 20.0044 22.8537C19.9938 22.8537 19.9831 22.8239 19.9831 22.7898C19.9831 22.7536 19.9746 22.726 19.9618 22.726C19.9512 22.726 19.9406 22.6876 19.9406 22.6408C19.9406 22.594 19.932 22.5557 19.9193 22.5557C19.9086 22.5557 19.898 22.5259 19.898 22.4918C19.898 22.4557 19.8895 22.428 19.8767 22.428C19.8661 22.428 19.8554 22.3982 19.8554 22.3641C19.8554 22.328 19.8469 22.3003 19.8341 22.3003C19.8235 22.3003 19.8129 22.262 19.8129 22.2152C19.8129 22.1683 19.8043 22.13 19.7916 22.13C19.7809 22.13 19.7703 22.0917 19.7703 22.0449C19.7703 21.9981 19.7618 21.9598 19.749 21.9598C19.7384 21.9598 19.7277 21.9215 19.7277 21.8746C19.7277 21.8278 19.7192 21.7895 19.7064 21.7895C19.6958 21.7895 19.6852 21.7512 19.6852 21.7044C19.6852 21.6575 19.6767 21.6192 19.6639 21.6192C19.6532 21.6192 19.6426 21.5809 19.6426 21.5341C19.6426 21.4873 19.6341 21.449 19.6213 21.449C19.6107 21.449 19.6 21.4107 19.6 21.3638C19.6 21.317 19.5915 21.2787 19.5787 21.2787C19.5681 21.2787 19.5575 21.2404 19.5575 21.1936C19.5575 21.1468 19.549 21.1084 19.5362 21.1084C19.5255 21.1084 19.5149 21.0595 19.5149 21.002C19.5149 20.9424 19.5064 20.8956 19.4936 20.8956C19.483 20.8956 19.4723 20.8467 19.4723 20.7892C19.4723 20.7296 19.4638 20.6828 19.4511 20.6828C19.4404 20.6828 19.4298 20.6338 19.4298 20.5764C19.4298 20.5168 19.4213 20.47 19.4085 20.47C19.3978 20.47 19.3872 20.421 19.3872 20.3635C19.3872 20.304 19.3787 20.2571 19.3659 20.2571C19.3531 20.2571 19.3446 20.1997 19.3446 20.1294C19.3446 20.0592 19.3361 20.0017 19.3234 20.0017C19.3106 20.0017 19.3021 19.9443 19.3021 19.874C19.3021 19.8038 19.2936 19.7463 19.2808 19.7463C19.268 19.7463 19.2595 19.6825 19.2595 19.5974C19.2595 19.5122 19.251 19.4484 19.2382 19.4484C19.2255 19.4484 19.2169 19.3781 19.2169 19.2781C19.2169 19.1781 19.2084 19.1079 19.1957 19.1079C19.1829 19.1079 19.1744 19.044 19.1744 18.9589C19.1744 18.8737 19.1659 18.8099 19.1531 18.8099C19.1403 18.8099 19.1318 18.7248 19.1318 18.5971C19.1318 18.4694 19.1233 18.3842 19.1105 18.3842C19.0978 18.3842 19.0892 18.2927 19.0892 18.1501C19.0892 18.0075 19.0807 17.916 19.068 17.916C19.0552 17.916 19.0467 17.8032 19.0467 17.618C19.0467 17.4329 19.0382 17.3201 19.0254 17.3201C19.0126 17.3201 19.0041 17.1498 19.0041 16.8519V16.3836H25.1762H31.3482V16.8519ZM17.7825 17.9884C17.8038 18.0118 17.8123 18.0756 17.8123 18.2225C17.8123 18.3438 17.8208 18.4268 17.8335 18.4268C17.8463 18.4268 17.8548 18.5119 17.8548 18.6396C17.8548 18.7673 17.8633 18.8525 17.8761 18.8525C17.8889 18.8525 17.8974 18.9312 17.8974 19.044C17.8974 19.1568 17.9059 19.2355 17.9187 19.2355C17.9314 19.2355 17.94 19.2994 17.94 19.3845C17.94 19.4697 17.9485 19.5335 17.9612 19.5335C17.974 19.5335 17.9825 19.5974 17.9825 19.6825C17.9825 19.7676 17.991 19.8315 18.0038 19.8315C18.0166 19.8315 18.0251 19.8953 18.0251 19.9805C18.0251 20.0656 18.0336 20.1294 18.0464 20.1294C18.0591 20.1294 18.0677 20.1763 18.0677 20.2358C18.0677 20.2933 18.0783 20.3423 18.0889 20.3423C18.1017 20.3423 18.1102 20.3997 18.1102 20.47C18.1102 20.5402 18.1187 20.5977 18.1315 20.5977C18.1443 20.5977 18.1528 20.6445 18.1528 20.7041C18.1528 20.7615 18.1634 20.8105 18.1741 20.8105C18.1868 20.8105 18.1954 20.8573 18.1954 20.9169C18.1954 20.9744 18.206 21.0233 18.2166 21.0233C18.2294 21.0233 18.2379 21.0701 18.2379 21.1297C18.2379 21.1872 18.2486 21.2361 18.2592 21.2361C18.272 21.2361 18.2805 21.2745 18.2805 21.3213C18.2805 21.3681 18.2911 21.4064 18.3018 21.4064C18.3145 21.4064 18.3231 21.4532 18.3231 21.5128C18.3231 21.5703 18.3337 21.6192 18.3443 21.6192C18.3571 21.6192 18.3656 21.6575 18.3656 21.7044C18.3656 21.7512 18.3763 21.7895 18.3869 21.7895C18.3997 21.7895 18.4082 21.8278 18.4082 21.8746C18.4082 21.9215 18.4188 21.9598 18.4295 21.9598C18.4422 21.9598 18.4508 22.0066 18.4508 22.0662C18.4508 22.1236 18.4614 22.1726 18.472 22.1726C18.4848 22.1726 18.4933 22.2003 18.4933 22.2364C18.4933 22.2705 18.504 22.3003 18.5146 22.3003C18.5274 22.3003 18.5359 22.3386 18.5359 22.3854C18.5359 22.4322 18.5465 22.4706 18.5572 22.4706C18.5699 22.4706 18.5785 22.4982 18.5785 22.5344C18.5785 22.5685 18.5891 22.5983 18.5997 22.5983C18.6125 22.5983 18.621 22.6366 18.621 22.6834C18.621 22.7302 18.6317 22.7685 18.6423 22.7685C18.6551 22.7685 18.6636 22.7962 18.6636 22.8324C18.6636 22.8664 18.6742 22.8962 18.6849 22.8962C18.6976 22.8962 18.7061 22.9345 18.7061 22.9813C18.7061 23.0282 18.7168 23.0665 18.7274 23.0665C18.7402 23.0665 18.7487 23.0941 18.7487 23.1303C18.7487 23.1644 18.7594 23.1942 18.77 23.1942C18.7828 23.1942 18.7913 23.2218 18.7913 23.258C18.7913 23.2921 18.8019 23.3219 18.8126 23.3219C18.8253 23.3219 18.8338 23.3495 18.8338 23.3857C18.8338 23.4198 18.8445 23.4496 18.8551 23.4496C18.8679 23.4496 18.8764 23.4772 18.8764 23.5134C18.8764 23.5475 18.8871 23.5773 18.8977 23.5773C18.9105 23.5773 18.919 23.6049 18.919 23.6411C18.919 23.6752 18.9296 23.705 18.9403 23.705C18.953 23.705 18.9615 23.7326 18.9615 23.7688C18.9615 23.8029 18.9722 23.8327 18.9828 23.8327C18.9956 23.8327 19.0041 23.8603 19.0041 23.8965C19.0041 23.9306 19.0148 23.9604 19.0254 23.9604C19.0382 23.9604 19.0467 23.988 19.0467 24.0242C19.0467 24.0583 19.0573 24.0881 19.068 24.0881C19.0807 24.0881 19.0892 24.1072 19.0892 24.1306C19.0892 24.154 19.0999 24.1732 19.1105 24.1732C19.1233 24.1732 19.1318 24.2009 19.1318 24.237C19.1318 24.2711 19.1424 24.3009 19.1531 24.3009C19.1659 24.3009 19.1744 24.32 19.1744 24.3435C19.1744 24.3669 19.185 24.386 19.1957 24.386C19.2084 24.386 19.2169 24.4137 19.2169 24.4499C19.2169 24.4839 19.2276 24.5137 19.2382 24.5137C19.251 24.5137 19.2595 24.5329 19.2595 24.5563C19.2595 24.5797 19.2701 24.5989 19.2808 24.5989C19.2936 24.5989 19.3021 24.6265 19.3021 24.6627C19.3021 24.6968 19.3127 24.7265 19.3234 24.7265C19.3361 24.7265 19.3446 24.7457 19.3446 24.7691C19.3446 24.7925 19.3553 24.8117 19.3659 24.8117C19.3787 24.8117 19.3872 24.8393 19.3872 24.8755C19.3872 24.9096 19.3978 24.9394 19.4085 24.9394C19.4213 24.9394 19.4298 24.9585 19.4298 24.9819C19.4298 25.0054 19.4404 25.0245 19.4511 25.0245C19.4638 25.0245 19.4723 25.0437 19.4723 25.0671C19.4723 25.0905 19.483 25.1096 19.4936 25.1096C19.5064 25.1096 19.5149 25.1288 19.5149 25.1522C19.5149 25.1756 19.5255 25.1948 19.5362 25.1948C19.549 25.1948 19.5575 25.2139 19.5575 25.2373C19.5575 25.2608 19.5681 25.2799 19.5787 25.2799C19.5915 25.2799 19.6 25.2991 19.6 25.3225C19.6 25.3459 19.6107 25.365 19.6213 25.365C19.6341 25.365 19.6426 25.3927 19.6426 25.4289C19.6426 25.4629 19.6532 25.4927 19.6639 25.4927C19.6767 25.4927 19.6852 25.5119 19.6852 25.5353C19.6852 25.5587 19.6958 25.5779 19.7064 25.5779C19.7192 25.5779 19.7277 25.597 19.7277 25.6204C19.7277 25.6438 19.7384 25.663 19.749 25.663C19.7618 25.663 19.7703 25.6822 19.7703 25.7056C19.7703 25.729 19.7809 25.7481 19.7916 25.7481C19.8043 25.7481 19.8129 25.7673 19.8129 25.7907C19.8129 25.8141 19.8235 25.8333 19.8341 25.8333C19.8469 25.8333 19.8554 25.8524 19.8554 25.8758C19.8554 25.8992 19.8661 25.9184 19.8767 25.9184C19.8895 25.9184 19.898 25.9375 19.898 25.961C19.898 25.9844 19.9086 26.0035 19.9193 26.0035C19.932 26.0035 19.9406 26.0206 19.9406 26.0418C19.9406 26.0631 19.9597 26.0929 19.9831 26.1099C20.0065 26.127 20.0257 26.1568 20.0257 26.178C20.0257 26.1993 20.0363 26.2164 20.047 26.2164C20.0597 26.2164 20.0683 26.2355 20.0683 26.2589C20.0683 26.2823 20.0789 26.3015 20.0895 26.3015C20.1023 26.3015 20.1108 26.3185 20.1108 26.3398C20.1108 26.3611 20.13 26.3909 20.1534 26.4079C20.1768 26.4249 20.196 26.4547 20.196 26.476C20.196 26.4973 20.2066 26.5143 20.2172 26.5143C20.23 26.5143 20.2385 26.5335 20.2385 26.5569C20.2385 26.5803 20.2492 26.5994 20.2598 26.5994C20.2726 26.5994 20.2811 26.608 20.2811 26.6207C20.2811 26.6314 20.2619 26.642 20.2385 26.642C20.2151 26.642 20.196 26.6314 20.196 26.6207C20.196 26.608 20.1768 26.5994 20.1534 26.5994C20.13 26.5994 20.1108 26.5888 20.1108 26.5782C20.1108 26.5654 20.0832 26.5569 20.047 26.5569C20.0129 26.5569 19.9831 26.5462 19.9831 26.5356C19.9831 26.5228 19.964 26.5143 19.9406 26.5143C19.9171 26.5143 19.898 26.5037 19.898 26.493C19.898 26.4803 19.8788 26.4718 19.8554 26.4718C19.832 26.4718 19.8129 26.4611 19.8129 26.4505C19.8129 26.4377 19.7958 26.4292 19.7746 26.4292C19.7533 26.4292 19.7235 26.41 19.7064 26.3866C19.6894 26.3632 19.6596 26.3441 19.6383 26.3441C19.6171 26.3441 19.6 26.3334 19.6 26.3228C19.6 26.31 19.5809 26.3015 19.5575 26.3015C19.5341 26.3015 19.5149 26.2908 19.5149 26.2802C19.5149 26.2674 19.4979 26.2589 19.4766 26.2589C19.4553 26.2589 19.4255 26.2398 19.4085 26.2164C19.3915 26.1929 19.3638 26.1738 19.3446 26.1738C19.3255 26.1738 19.2978 26.1546 19.2808 26.1312C19.2638 26.1078 19.2361 26.0887 19.2212 26.0887C19.2063 26.0887 19.1552 26.0503 19.1105 26.0035C19.0658 25.9567 19.0169 25.9184 19.0041 25.9184C18.9892 25.9184 18.9509 25.8886 18.919 25.8545C18.8871 25.8184 18.8487 25.7907 18.836 25.7907C18.8062 25.7907 18.0251 25.0117 18.0251 24.9798C18.0251 24.967 17.9868 24.9202 17.94 24.8755C17.8931 24.8308 17.8548 24.7819 17.8548 24.7691C17.8548 24.7542 17.8272 24.7159 17.791 24.684C17.7569 24.6521 17.7271 24.6137 17.7271 24.5989C17.7271 24.584 17.6973 24.5456 17.6633 24.5137C17.6271 24.4818 17.5994 24.4414 17.5994 24.4243C17.5994 24.4094 17.5803 24.3818 17.5569 24.3647C17.5335 24.3477 17.5143 24.32 17.5143 24.3009C17.5143 24.2817 17.4951 24.2541 17.4717 24.237C17.4483 24.22 17.4292 24.1923 17.4292 24.1732C17.4292 24.154 17.41 24.1264 17.3866 24.1093C17.3632 24.0923 17.344 24.0625 17.344 24.0412C17.344 24.02 17.3355 24.0029 17.3228 24.0029C17.3121 24.0029 17.3015 23.9859 17.3015 23.9646C17.3015 23.9433 17.2823 23.9135 17.2589 23.8965C17.2355 23.8795 17.2163 23.8497 17.2163 23.8284C17.2163 23.8071 17.2078 23.7901 17.1951 23.7901C17.1844 23.7901 17.1738 23.7731 17.1738 23.7518C17.1738 23.7305 17.1546 23.7007 17.1312 23.6837C17.1078 23.6667 17.0886 23.6369 17.0886 23.6156C17.0886 23.5943 17.0801 23.5773 17.0674 23.5773C17.0567 23.5773 17.0461 23.5581 17.0461 23.5347C17.0461 23.5113 17.0376 23.4921 17.0248 23.4921C17.0142 23.4921 17.0035 23.473 17.0035 23.4496C17.0035 23.4262 16.995 23.407 16.9822 23.407C16.9716 23.407 16.9609 23.3879 16.9609 23.3644C16.9609 23.341 16.9524 23.3219 16.9397 23.3219C16.929 23.3219 16.9184 23.3027 16.9184 23.2793C16.9184 23.2559 16.9099 23.2367 16.8971 23.2367C16.8865 23.2367 16.8758 23.2176 16.8758 23.1942C16.8758 23.1708 16.8673 23.1516 16.8545 23.1516C16.8439 23.1516 16.8332 23.1325 16.8332 23.109C16.8332 23.0856 16.8247 23.0665 16.812 23.0665C16.8013 23.0665 16.7907 23.0495 16.7907 23.0282C16.7907 23.0069 16.7715 22.9771 16.7481 22.9601C16.7226 22.943 16.7056 22.9047 16.7056 22.8707C16.7056 22.8388 16.697 22.8111 16.6843 22.8111C16.6736 22.8111 16.663 22.7919 16.663 22.7685C16.663 22.7451 16.6545 22.726 16.6417 22.726C16.6311 22.726 16.6204 22.7068 16.6204 22.6834C16.6204 22.66 16.6119 22.6408 16.5991 22.6408C16.5885 22.6408 16.5779 22.611 16.5779 22.577C16.5779 22.5408 16.5693 22.5131 16.5566 22.5131C16.5459 22.5131 16.5353 22.494 16.5353 22.4706C16.5353 22.4471 16.5268 22.428 16.514 22.428C16.5034 22.428 16.4927 22.3982 16.4927 22.3641C16.4927 22.328 16.4842 22.3003 16.4714 22.3003C16.4608 22.3003 16.4502 22.2811 16.4502 22.2577C16.4502 22.2343 16.4416 22.2152 16.4289 22.2152C16.4182 22.2152 16.4076 22.196 16.4076 22.1726C16.4076 22.1492 16.3991 22.13 16.3863 22.13C16.3757 22.13 16.365 22.1002 16.365 22.0662C16.365 22.03 16.3565 22.0023 16.3437 22.0023C16.3331 22.0023 16.3225 21.9725 16.3225 21.9385C16.3225 21.9023 16.3139 21.8746 16.3012 21.8746C16.2905 21.8746 16.2799 21.8448 16.2799 21.8108C16.2799 21.7746 16.2714 21.7469 16.2586 21.7469C16.248 21.7469 16.2373 21.7171 16.2373 21.6831C16.2373 21.6469 16.2288 21.6192 16.216 21.6192C16.2054 21.6192 16.1948 21.5894 16.1948 21.5554C16.1948 21.5192 16.1862 21.4915 16.1735 21.4915C16.1628 21.4915 16.1522 21.4617 16.1522 21.4277C16.1522 21.3915 16.1437 21.3638 16.1309 21.3638C16.1203 21.3638 16.1096 21.3255 16.1096 21.2787C16.1096 21.2319 16.1011 21.1936 16.0883 21.1936C16.0777 21.1936 16.0671 21.1553 16.0671 21.1084C16.0671 21.0616 16.0586 21.0233 16.0458 21.0233C16.0351 21.0233 16.0245 20.9935 16.0245 20.9595C16.0245 20.9233 16.016 20.8956 16.0032 20.8956C15.9926 20.8956 15.9819 20.8573 15.9819 20.8105C15.9819 20.7637 15.9734 20.7254 15.9606 20.7254C15.95 20.7254 15.9394 20.687 15.9394 20.6402C15.9394 20.5934 15.9309 20.5551 15.9181 20.5551C15.9074 20.5551 15.8968 20.5061 15.8968 20.4487C15.8968 20.3891 15.8883 20.3423 15.8755 20.3423C15.8649 20.3423 15.8542 20.2933 15.8542 20.2358C15.8542 20.1763 15.8457 20.1294 15.833 20.1294C15.8223 20.1294 15.8117 20.0805 15.8117 20.023C15.8117 19.9634 15.8032 19.9166 15.7904 19.9166C15.7797 19.9166 15.7691 19.8677 15.7691 19.8102C15.7691 19.7506 15.7606 19.7038 15.7478 19.7038C15.735 19.7038 15.7265 19.6335 15.7265 19.5335C15.7265 19.4335 15.718 19.3632 15.7053 19.3632C15.6925 19.3632 15.684 19.2994 15.684 19.2143C15.684 19.1291 15.6755 19.0653 15.6627 19.0653C15.6499 19.0653 15.6414 18.9802 15.6414 18.8525C15.6414 18.7248 15.6329 18.6396 15.6201 18.6396C15.6074 18.6396 15.5988 18.5332 15.5988 18.3629C15.5988 18.1927 15.5903 18.0863 15.5776 18.0863C15.5669 18.0863 15.5563 18.0565 15.5563 18.0224V17.9586H16.6545C17.576 17.9586 17.7569 17.9628 17.7825 17.9884ZM34.7961 18.0224C34.7961 18.0565 34.7875 18.0863 34.7748 18.0863C34.762 18.0863 34.7535 18.1927 34.7535 18.3629C34.7535 18.5332 34.745 18.6396 34.7322 18.6396C34.7194 18.6396 34.7109 18.7248 34.7109 18.8525C34.7109 18.9802 34.7024 19.0653 34.6896 19.0653C34.6769 19.0653 34.6684 19.1291 34.6684 19.2143C34.6684 19.2994 34.6598 19.3632 34.6471 19.3632C34.6343 19.3632 34.6258 19.4335 34.6258 19.5335C34.6258 19.6335 34.6173 19.7038 34.6045 19.7038C34.5939 19.7038 34.5832 19.7506 34.5832 19.8102C34.5832 19.8677 34.5747 19.9166 34.5619 19.9166C34.5513 19.9166 34.5407 19.9634 34.5407 20.023C34.5407 20.0805 34.5321 20.1294 34.5194 20.1294C34.5087 20.1294 34.4981 20.1763 34.4981 20.2358C34.4981 20.2933 34.4896 20.3423 34.4768 20.3423C34.4662 20.3423 34.4555 20.3891 34.4555 20.4487C34.4555 20.5061 34.447 20.5551 34.4342 20.5551C34.4236 20.5551 34.413 20.5934 34.413 20.6402C34.413 20.687 34.4044 20.7254 34.3917 20.7254C34.381 20.7254 34.3704 20.7637 34.3704 20.8105C34.3704 20.8573 34.3619 20.8956 34.3491 20.8956C34.3385 20.8956 34.3278 20.9233 34.3278 20.9595C34.3278 20.9935 34.3193 21.0233 34.3065 21.0233C34.2959 21.0233 34.2853 21.0616 34.2853 21.1084C34.2853 21.1553 34.2767 21.1936 34.264 21.1936C34.2533 21.1936 34.2427 21.2319 34.2427 21.2787C34.2427 21.3255 34.2342 21.3638 34.2214 21.3638C34.2108 21.3638 34.2001 21.3915 34.2001 21.4277C34.2001 21.4617 34.1916 21.4915 34.1788 21.4915C34.1682 21.4915 34.1576 21.5192 34.1576 21.5554C34.1576 21.5894 34.149 21.6192 34.1363 21.6192C34.1256 21.6192 34.115 21.6469 34.115 21.6831C34.115 21.7171 34.1065 21.7469 34.0937 21.7469C34.0831 21.7469 34.0724 21.7746 34.0724 21.8108C34.0724 21.8448 34.0639 21.8746 34.0511 21.8746C34.0405 21.8746 34.0299 21.9023 34.0299 21.9385C34.0299 21.9725 34.0214 22.0023 34.0086 22.0023C33.9979 22.0023 33.9873 22.03 33.9873 22.0662C33.9873 22.1002 33.9788 22.13 33.966 22.13C33.9554 22.13 33.9447 22.1492 33.9447 22.1726C33.9447 22.196 33.9362 22.2152 33.9235 22.2152C33.9128 22.2152 33.9022 22.2343 33.9022 22.2577C33.9022 22.2811 33.8937 22.3003 33.8809 22.3003C33.8702 22.3003 33.8596 22.328 33.8596 22.3641C33.8596 22.3982 33.8511 22.428 33.8383 22.428C33.8277 22.428 33.817 22.4471 33.817 22.4706C33.817 22.494 33.8085 22.5131 33.7958 22.5131C33.7851 22.5131 33.7745 22.5408 33.7745 22.577C33.7745 22.611 33.766 22.6408 33.7532 22.6408C33.7425 22.6408 33.7319 22.66 33.7319 22.6834C33.7319 22.7068 33.7234 22.726 33.7106 22.726C33.7 22.726 33.6893 22.7451 33.6893 22.7685C33.6893 22.7919 33.6808 22.8111 33.6681 22.8111C33.6574 22.8111 33.6468 22.8388 33.6468 22.8707C33.6468 22.9047 33.6297 22.943 33.6042 22.9601C33.5808 22.9771 33.5616 23.0069 33.5616 23.0282C33.5616 23.0495 33.5531 23.0665 33.5404 23.0665C33.5297 23.0665 33.5191 23.0856 33.5191 23.109C33.5191 23.1325 33.5106 23.1516 33.4978 23.1516C33.4872 23.1516 33.4765 23.1708 33.4765 23.1942C33.4765 23.2176 33.468 23.2367 33.4552 23.2367C33.4446 23.2367 33.4339 23.2559 33.4339 23.2793C33.4339 23.3027 33.4254 23.3219 33.4127 23.3219C33.402 23.3219 33.3914 23.341 33.3914 23.3644C33.3914 23.3879 33.3829 23.407 33.3701 23.407C33.3595 23.407 33.3488 23.4262 33.3488 23.4496C33.3488 23.473 33.3403 23.4921 33.3275 23.4921C33.3169 23.4921 33.3062 23.5113 33.3062 23.5347C33.3062 23.5581 33.2977 23.5773 33.285 23.5773C33.2743 23.5773 33.2637 23.5943 33.2637 23.6156C33.2637 23.6369 33.2445 23.6667 33.2211 23.6837C33.1977 23.7007 33.1785 23.7305 33.1785 23.7518C33.1785 23.7731 33.17 23.7901 33.1573 23.7901C33.1466 23.7901 33.136 23.8071 33.136 23.8284C33.136 23.8497 33.1168 23.8795 33.0934 23.8965C33.07 23.9135 33.0508 23.9433 33.0508 23.9646C33.0508 23.9859 33.0423 24.0029 33.0296 24.0029C33.0189 24.0029 33.0083 24.02 33.0083 24.0412C33.0083 24.0625 32.9891 24.0923 32.9657 24.1093C32.9423 24.1264 32.9232 24.154 32.9232 24.1732C32.9232 24.1923 32.904 24.22 32.8806 24.237C32.8572 24.2541 32.838 24.2817 32.838 24.3009C32.838 24.32 32.8189 24.3477 32.7955 24.3647C32.772 24.3818 32.7529 24.4094 32.7529 24.4243C32.7529 24.4414 32.7252 24.4818 32.689 24.5137C32.655 24.5456 32.6252 24.584 32.6252 24.5989C32.6252 24.6137 32.5975 24.6521 32.5613 24.684C32.5273 24.7159 32.4975 24.7542 32.4975 24.7691C32.4975 24.7819 32.4592 24.8308 32.4124 24.8755C32.3655 24.9202 32.3272 24.967 32.3272 24.9798C32.3272 25.0117 31.5461 25.7907 31.5163 25.7907C31.5036 25.7907 31.4653 25.8184 31.4333 25.8545C31.4014 25.8886 31.3631 25.9184 31.3482 25.9184C31.3354 25.9184 31.2865 25.9567 31.2418 26.0035C31.1971 26.0503 31.146 26.0887 31.1311 26.0887C31.1162 26.0887 31.0886 26.1078 31.0715 26.1312C31.0545 26.1546 31.0268 26.1738 31.0077 26.1738C30.9885 26.1738 30.9609 26.1929 30.9438 26.2164C30.9268 26.2398 30.897 26.2589 30.8757 26.2589C30.8545 26.2589 30.8374 26.2674 30.8374 26.2802C30.8374 26.2908 30.8183 26.3015 30.7949 26.3015C30.7714 26.3015 30.7523 26.31 30.7523 26.3228C30.7523 26.3334 30.7353 26.3441 30.714 26.3441C30.6927 26.3441 30.6629 26.3632 30.6459 26.3866C30.6289 26.41 30.5991 26.4292 30.5778 26.4292C30.5565 26.4292 30.5395 26.4377 30.5395 26.4505C30.5395 26.4611 30.5203 26.4718 30.4969 26.4718C30.4735 26.4718 30.4543 26.4803 30.4543 26.493C30.4543 26.5037 30.4352 26.5143 30.4118 26.5143C30.3884 26.5143 30.3692 26.5228 30.3692 26.5356C30.3692 26.5462 30.3415 26.5569 30.3054 26.5569C30.2713 26.5569 30.2415 26.5654 30.2415 26.5782C30.2415 26.5888 30.2223 26.5994 30.1989 26.5994C30.1755 26.5994 30.1564 26.608 30.1564 26.6207C30.1564 26.6314 30.1372 26.642 30.1138 26.642C30.0904 26.642 30.0712 26.6314 30.0712 26.6207C30.0712 26.608 30.0819 26.5994 30.0925 26.5994C30.1053 26.5994 30.1138 26.5803 30.1138 26.5569C30.1138 26.5335 30.1244 26.5143 30.1351 26.5143C30.1479 26.5143 30.1564 26.4973 30.1564 26.476C30.1564 26.4547 30.1755 26.4249 30.1989 26.4079C30.2223 26.3909 30.2415 26.3611 30.2415 26.3398C30.2415 26.3185 30.2521 26.3015 30.2628 26.3015C30.2756 26.3015 30.2841 26.2823 30.2841 26.2589C30.2841 26.2355 30.2947 26.2164 30.3054 26.2164C30.3181 26.2164 30.3266 26.1993 30.3266 26.178C30.3266 26.1568 30.3458 26.127 30.3692 26.1099C30.3926 26.0929 30.4118 26.0631 30.4118 26.0418C30.4118 26.0206 30.4224 26.0035 30.433 26.0035C30.4458 26.0035 30.4543 25.9844 30.4543 25.961C30.4543 25.9375 30.465 25.9184 30.4756 25.9184C30.4884 25.9184 30.4969 25.8992 30.4969 25.8758C30.4969 25.8524 30.5075 25.8333 30.5182 25.8333C30.531 25.8333 30.5395 25.8141 30.5395 25.7907C30.5395 25.7673 30.5501 25.7481 30.5607 25.7481C30.5735 25.7481 30.582 25.729 30.582 25.7056C30.582 25.6822 30.5927 25.663 30.6033 25.663C30.6161 25.663 30.6246 25.6438 30.6246 25.6204C30.6246 25.597 30.6352 25.5779 30.6459 25.5779C30.6586 25.5779 30.6672 25.5587 30.6672 25.5353C30.6672 25.5119 30.6778 25.4927 30.6884 25.4927C30.7012 25.4927 30.7097 25.4629 30.7097 25.4289C30.7097 25.3927 30.7204 25.365 30.731 25.365C30.7438 25.365 30.7523 25.3459 30.7523 25.3225C30.7523 25.2991 30.7629 25.2799 30.7736 25.2799C30.7863 25.2799 30.7949 25.2608 30.7949 25.2373C30.7949 25.2139 30.8055 25.1948 30.8161 25.1948C30.8289 25.1948 30.8374 25.1756 30.8374 25.1522C30.8374 25.1288 30.8481 25.1096 30.8587 25.1096C30.8715 25.1096 30.88 25.0905 30.88 25.0671C30.88 25.0437 30.8906 25.0245 30.9013 25.0245C30.914 25.0245 30.9226 25.0054 30.9226 24.9819C30.9226 24.9585 30.9332 24.9394 30.9438 24.9394C30.9566 24.9394 30.9651 24.9096 30.9651 24.8755C30.9651 24.8393 30.9758 24.8117 30.9864 24.8117C30.9992 24.8117 31.0077 24.7925 31.0077 24.7691C31.0077 24.7457 31.0183 24.7265 31.029 24.7265C31.0417 24.7265 31.0503 24.6968 31.0503 24.6627C31.0503 24.6265 31.0609 24.5989 31.0715 24.5989C31.0843 24.5989 31.0928 24.5797 31.0928 24.5563C31.0928 24.5329 31.1035 24.5137 31.1141 24.5137C31.1269 24.5137 31.1354 24.4839 31.1354 24.4499C31.1354 24.4137 31.146 24.386 31.1567 24.386C31.1694 24.386 31.178 24.3669 31.178 24.3435C31.178 24.32 31.1886 24.3009 31.1992 24.3009C31.212 24.3009 31.2205 24.2711 31.2205 24.237C31.2205 24.2009 31.2312 24.1732 31.2418 24.1732C31.2546 24.1732 31.2631 24.154 31.2631 24.1306C31.2631 24.1072 31.2737 24.0881 31.2844 24.0881C31.2971 24.0881 31.3056 24.0583 31.3056 24.0242C31.3056 23.988 31.3163 23.9604 31.3269 23.9604C31.3397 23.9604 31.3482 23.9306 31.3482 23.8965C31.3482 23.8603 31.3589 23.8327 31.3695 23.8327C31.3823 23.8327 31.3908 23.8029 31.3908 23.7688C31.3908 23.7326 31.4014 23.705 31.4121 23.705C31.4248 23.705 31.4333 23.6752 31.4333 23.6411C31.4333 23.6049 31.444 23.5773 31.4546 23.5773C31.4674 23.5773 31.4759 23.5475 31.4759 23.5134C31.4759 23.4772 31.4866 23.4496 31.4972 23.4496C31.51 23.4496 31.5185 23.4198 31.5185 23.3857C31.5185 23.3495 31.5291 23.3219 31.5398 23.3219C31.5525 23.3219 31.561 23.2921 31.561 23.258C31.561 23.2218 31.5717 23.1942 31.5823 23.1942C31.5951 23.1942 31.6036 23.1644 31.6036 23.1303C31.6036 23.0941 31.6143 23.0665 31.6249 23.0665C31.6377 23.0665 31.6462 23.0282 31.6462 22.9813C31.6462 22.9345 31.6568 22.8962 31.6675 22.8962C31.6802 22.8962 31.6887 22.8664 31.6887 22.8324C31.6887 22.7962 31.6994 22.7685 31.71 22.7685C31.7228 22.7685 31.7313 22.7302 31.7313 22.6834C31.7313 22.6366 31.7419 22.5983 31.7526 22.5983C31.7654 22.5983 31.7739 22.5685 31.7739 22.5344C31.7739 22.4982 31.7845 22.4706 31.7952 22.4706C31.8079 22.4706 31.8164 22.4322 31.8164 22.3854C31.8164 22.3386 31.8271 22.3003 31.8377 22.3003C31.8505 22.3003 31.859 22.2705 31.859 22.2364C31.859 22.2003 31.8696 22.1726 31.8803 22.1726C31.8931 22.1726 31.9016 22.1236 31.9016 22.0662C31.9016 22.0066 31.9122 21.9598 31.9229 21.9598C31.9356 21.9598 31.9441 21.9215 31.9441 21.8746C31.9441 21.8278 31.9548 21.7895 31.9654 21.7895C31.9782 21.7895 31.9867 21.7512 31.9867 21.7044C31.9867 21.6575 31.9973 21.6192 32.008 21.6192C32.0208 21.6192 32.0293 21.5703 32.0293 21.5128C32.0293 21.4532 32.0399 21.4064 32.0506 21.4064C32.0633 21.4064 32.0718 21.3681 32.0718 21.3213C32.0718 21.2745 32.0825 21.2361 32.0931 21.2361C32.1059 21.2361 32.1144 21.1872 32.1144 21.1297C32.1144 21.0701 32.125 21.0233 32.1357 21.0233C32.1485 21.0233 32.157 20.9744 32.157 20.9169C32.157 20.8573 32.1676 20.8105 32.1782 20.8105C32.191 20.8105 32.1995 20.7615 32.1995 20.7041C32.1995 20.6445 32.2102 20.5977 32.2208 20.5977C32.2336 20.5977 32.2421 20.5402 32.2421 20.47C32.2421 20.3997 32.2506 20.3423 32.2634 20.3423C32.2761 20.3423 32.2847 20.2933 32.2847 20.2358C32.2847 20.1763 32.2953 20.1294 32.3059 20.1294C32.3187 20.1294 32.3272 20.0656 32.3272 19.9805C32.3272 19.8953 32.3357 19.8315 32.3485 19.8315C32.3613 19.8315 32.3698 19.7676 32.3698 19.6825C32.3698 19.5974 32.3783 19.5335 32.3911 19.5335C32.4038 19.5335 32.4124 19.4697 32.4124 19.3845C32.4124 19.2994 32.4209 19.2355 32.4336 19.2355C32.4464 19.2355 32.4549 19.1568 32.4549 19.044C32.4549 18.9312 32.4634 18.8525 32.4762 18.8525C32.489 18.8525 32.4975 18.7673 32.4975 18.6396C32.4975 18.5119 32.506 18.4268 32.5188 18.4268C32.5315 18.4268 32.5401 18.3459 32.5401 18.2246C32.5401 18.0905 32.5486 18.0097 32.5677 17.9905C32.589 17.965 32.7699 17.9607 33.6957 17.9586H34.7961V18.0224ZM24.1971 29.9409C24.1971 29.9515 24.2461 29.9622 24.3036 29.9622C24.3632 29.9622 24.41 29.9707 24.41 29.9834C24.41 29.9941 24.4589 30.0047 24.5164 30.0047C24.576 30.0047 24.6228 30.0132 24.6228 30.026C24.6228 30.0388 24.8207 30.0473 25.1762 30.0473C25.5316 30.0473 25.7295 30.0388 25.7295 30.026C25.7295 30.0132 25.7785 30.0047 25.8359 30.0047C25.8955 30.0047 25.9423 29.9941 25.9423 29.9834C25.9423 29.9707 25.9913 29.9622 26.0488 29.9622C26.1084 29.9622 26.1552 29.9515 26.1552 29.9409C26.1552 29.9281 26.1743 29.9196 26.1977 29.9196C26.2403 29.9196 26.2403 29.9345 26.2403 31.0689V32.2181H25.1762H24.112V31.0689C24.112 29.9345 24.112 29.9196 24.1546 29.9196C24.178 29.9196 24.1971 29.9281 24.1971 29.9409ZM28.8368 33.5164C28.8368 33.527 28.8751 33.5377 28.922 33.5377C28.9688 33.5377 29.0071 33.5462 29.0071 33.559C29.0071 33.5696 29.0262 33.5803 29.0497 33.5803C29.0731 33.5803 29.0922 33.5888 29.0922 33.6015C29.0922 33.6122 29.1071 33.6228 29.1263 33.6228C29.1433 33.6228 29.1965 33.6611 29.2412 33.7079C29.2859 33.7548 29.3391 33.7931 29.3561 33.7931C29.3753 33.7931 29.3902 33.808 29.3902 33.8271C29.3902 33.8463 29.42 33.8889 29.454 33.9208C29.4902 33.9527 29.5179 33.9953 29.5179 34.0144C29.5179 34.0336 29.5285 34.0485 29.5392 34.0485C29.5519 34.0485 29.5604 34.0676 29.5604 34.091C29.5604 34.1145 29.5711 34.1336 29.5817 34.1336C29.5945 34.1336 29.603 34.1613 29.603 34.1975C29.603 34.2315 29.6137 34.2613 29.6243 34.2613C29.6371 34.2613 29.6456 34.5018 29.6456 34.9424V35.6234H25.1762H20.7067V34.9424C20.7067 34.5018 20.7153 34.2613 20.728 34.2613C20.7408 34.2613 20.7493 34.2315 20.7493 34.1975C20.7493 34.1613 20.76 34.1336 20.7706 34.1336C20.7834 34.1336 20.7919 34.1145 20.7919 34.091C20.7919 34.0676 20.8025 34.0485 20.8132 34.0485C20.8259 34.0485 20.8344 34.0336 20.8344 34.0144C20.8344 33.9953 20.8642 33.9527 20.8983 33.9208C20.9345 33.8889 20.9621 33.8463 20.9621 33.8271C20.9621 33.808 20.977 33.7931 20.9962 33.7931C21.0132 33.7931 21.0664 33.7548 21.1111 33.7079C21.1558 33.6611 21.209 33.6228 21.226 33.6228C21.2452 33.6228 21.2601 33.6122 21.2601 33.6015C21.2601 33.5888 21.2793 33.5803 21.3027 33.5803C21.3261 33.5803 21.3452 33.5696 21.3452 33.559C21.3452 33.5462 21.3835 33.5377 21.4304 33.5377C21.4772 33.5377 21.5155 33.527 21.5155 33.5164C21.5155 33.5015 22.7499 33.4951 25.1762 33.4951C27.6024 33.4951 28.8368 33.5015 28.8368 33.5164Z" fill="white"/>
</svg>
