<svg width="52" height="52" viewBox="0 0 52 52" fill="none" xmlns="http://www.w3.org/2000/svg">
<path fill-rule="evenodd" clip-rule="evenodd" d="M32.8166 5.43685C33.5427 6.163 34.5276 6.57095 35.5545 6.57095H41.2642C43.4026 6.57095 45.1362 8.30452 45.1362 10.443V16.1528C45.1362 17.1796 45.5441 18.1644 46.2701 18.8906L50.4171 23.0381C51.9291 24.5502 51.929 27.0017 50.417 28.5138L46.2703 32.6605C45.5442 33.3866 45.1362 34.3715 45.1362 35.3984V41.4186C45.1362 43.5571 43.4026 45.2907 41.2642 45.2907H35.244C34.217 45.2907 33.2322 45.6986 32.506 46.4248L28.5138 50.417C27.0017 51.9291 24.55 51.9291 23.0379 50.417L19.0457 46.4248C18.3196 45.6986 17.3347 45.2907 16.3078 45.2907H10.2885C8.15006 45.2907 6.41649 43.5571 6.41649 41.4186V35.3996C6.41649 34.3725 6.00847 33.3876 5.28222 32.6614L1.13426 28.514C-0.378021 27.0019 -0.378098 24.5501 1.13409 23.0379L5.28239 18.8896C6.00854 18.1635 6.41649 17.1786 6.41649 16.1517V10.443C6.41649 8.30452 8.15006 6.57095 10.2885 6.57095H15.9972C17.0241 6.57095 18.009 6.163 18.7352 5.43685L23.0379 1.1341C24.55 -0.378031 27.0017 -0.378033 28.5138 1.1341L32.8166 5.43685Z" fill="#1CB5B3"/>
<mask id="path-2-inside-1_9876_1176" fill="white">
<path fill-rule="evenodd" clip-rule="evenodd" d="M32.2083 7.32831C32.8669 7.9869 33.7601 8.35689 34.6915 8.35689H39.8696C41.8091 8.35689 43.3814 9.92917 43.3814 11.8687V17.0468C43.3814 17.9782 43.7514 18.8714 44.41 19.53L48.1726 23.2926C49.544 24.6641 49.544 26.8876 48.1726 28.259L44.41 32.0217C43.7514 32.6803 43.3814 33.5735 43.3814 34.5049V39.9633C43.3814 41.9028 41.8091 43.4751 39.8696 43.4751H34.4112C33.4798 43.4751 32.5866 43.845 31.928 44.5036L28.307 48.1247C26.9355 49.4961 24.712 49.4961 23.3406 48.1247L19.7195 44.5036C19.0609 43.845 18.1677 43.4751 17.2363 43.4751H11.775C9.8355 43.4751 8.26322 41.9028 8.26322 39.9633V34.5021C8.26322 33.5706 7.89316 32.6773 7.23447 32.0187L3.4743 28.259C2.10271 26.8876 2.10263 24.664 3.47414 23.2925L7.23464 19.532C7.89323 18.8734 8.26322 17.9801 8.26322 17.0487V11.8687C8.26322 9.92917 9.8355 8.35689 11.775 8.35689H16.956C17.8874 8.35689 18.7807 7.9869 19.4393 7.32831L23.3405 3.42702C24.712 2.05558 26.9355 2.05558 28.307 3.42702L32.2083 7.32831Z"/>
</mask>
<path fill-rule="evenodd" clip-rule="evenodd" d="M32.2083 7.32831C32.8669 7.9869 33.7601 8.35689 34.6915 8.35689H39.8696C41.8091 8.35689 43.3814 9.92917 43.3814 11.8687V17.0468C43.3814 17.9782 43.7514 18.8714 44.41 19.53L48.1726 23.2926C49.544 24.6641 49.544 26.8876 48.1726 28.259L44.41 32.0217C43.7514 32.6803 43.3814 33.5735 43.3814 34.5049V39.9633C43.3814 41.9028 41.8091 43.4751 39.8696 43.4751H34.4112C33.4798 43.4751 32.5866 43.845 31.928 44.5036L28.307 48.1247C26.9355 49.4961 24.712 49.4961 23.3406 48.1247L19.7195 44.5036C19.0609 43.845 18.1677 43.4751 17.2363 43.4751H11.775C9.8355 43.4751 8.26322 41.9028 8.26322 39.9633V34.5021C8.26322 33.5706 7.89316 32.6773 7.23447 32.0187L3.4743 28.259C2.10271 26.8876 2.10263 24.664 3.47414 23.2925L7.23464 19.532C7.89323 18.8734 8.26322 17.9801 8.26322 17.0487V11.8687C8.26322 9.92917 9.8355 8.35689 11.775 8.35689H16.956C17.8874 8.35689 18.7807 7.9869 19.4393 7.32831L23.3405 3.42702C24.712 2.05558 26.9355 2.05558 28.307 3.42702L32.2083 7.32831Z" fill="#1CB5B3"/>
<path fill-rule="evenodd" clip-rule="evenodd" d="M28.307 3.42702L27.4792 4.25475L28.307 3.42702ZM19.4393 7.32831L18.6115 6.50057L19.4393 7.32831ZM7.23464 19.532L6.4069 18.7042L7.23464 19.532ZM7.23447 32.0187L8.06215 31.1909L7.23447 32.0187ZM19.7195 44.5036L20.5473 43.6759L19.7195 44.5036ZM28.307 48.1247L29.1347 48.9524L28.307 48.1247ZM23.3406 48.1247L22.5128 48.9524L23.3406 48.1247ZM31.928 44.5036L31.1003 43.6759L31.928 44.5036ZM32.2083 7.32831L33.036 6.50057L32.2083 7.32831ZM34.6915 8.35689V9.52749H39.8696V8.35689V7.18629H34.6915V8.35689ZM43.3814 11.8687H42.2108V17.0468H43.3814H44.552V11.8687H43.3814ZM44.41 19.53L43.5822 20.3577L47.3448 24.1204L48.1726 23.2926L49.0003 22.4649L45.2377 18.7023L44.41 19.53ZM48.1726 28.259L47.3448 27.4313L43.5822 31.1939L44.41 32.0217L45.2377 32.8494L49.0003 29.0868L48.1726 28.259ZM43.3814 34.5049H42.2108V39.9633H43.3814H44.552V34.5049H43.3814ZM39.8696 43.4751V42.3045H34.4112V43.4751V44.6457H39.8696V43.4751ZM31.928 44.5036L31.1003 43.6759L27.4792 47.2969L28.307 48.1247L29.1347 48.9524L32.7557 45.3314L31.928 44.5036ZM23.3406 48.1247L24.1683 47.2969L20.5473 43.6759L19.7195 44.5036L18.8918 45.3314L22.5128 48.9524L23.3406 48.1247ZM17.2363 43.4751V42.3045H11.775V43.4751V44.6457H17.2363V43.4751ZM8.26322 39.9633H9.43382V34.5021H8.26322H7.09262V39.9633H8.26322ZM7.23447 32.0187L8.06215 31.1909L4.30199 27.4313L3.4743 28.259L2.64662 29.0868L6.40679 32.8465L7.23447 32.0187ZM3.47414 23.2925L4.30187 24.1202L8.06238 20.3597L7.23464 19.532L6.4069 18.7042L2.6464 22.4647L3.47414 23.2925ZM8.26322 17.0487H9.43382V11.8687H8.26322H7.09262V17.0487H8.26322ZM11.775 8.35689V9.52749H16.956V8.35689V7.18629H11.775V8.35689ZM19.4393 7.32831L20.267 8.15605L24.1683 4.25476L23.3405 3.42702L22.5128 2.59928L18.6115 6.50057L19.4393 7.32831ZM28.307 3.42702L27.4792 4.25475L31.3805 8.15605L32.2083 7.32831L33.036 6.50057L29.1347 2.59928L28.307 3.42702ZM23.3405 3.42702L24.1683 4.25476C25.0826 3.34046 26.5649 3.34046 27.4792 4.25475L28.307 3.42702L29.1347 2.59928C27.3061 0.770691 24.3414 0.770695 22.5128 2.59928L23.3405 3.42702ZM16.956 8.35689V9.52749C18.1979 9.52749 19.3889 9.03417 20.267 8.15605L19.4393 7.32831L18.6115 6.50057C18.1725 6.93963 17.577 7.18629 16.956 7.18629V8.35689ZM8.26322 11.8687H9.43382C9.43382 10.5757 10.482 9.52749 11.775 9.52749V8.35689V7.18629C9.189 7.18629 7.09262 9.28267 7.09262 11.8687H8.26322ZM7.23464 19.532L8.06238 20.3597C8.9405 19.4816 9.43382 18.2906 9.43382 17.0487H8.26322H7.09262C7.09262 17.6697 6.84596 18.2652 6.4069 18.7042L7.23464 19.532ZM3.4743 28.259L4.30199 27.4313C3.38759 26.517 3.38754 25.0345 4.30187 24.1202L3.47414 23.2925L2.6464 22.4647C0.817724 24.2934 0.817825 27.2583 2.64662 29.0868L3.4743 28.259ZM8.26322 34.5021H9.43382C9.43382 33.2601 8.94041 32.0691 8.06215 31.1909L7.23447 32.0187L6.40679 32.8465C6.84592 33.2856 7.09262 33.8811 7.09262 34.5021H8.26322ZM11.775 43.4751V42.3045C10.482 42.3045 9.43382 41.2563 9.43382 39.9633H8.26322H7.09262C7.09262 42.5493 9.189 44.6457 11.775 44.6457V43.4751ZM19.7195 44.5036L20.5473 43.6759C19.6692 42.7978 18.4782 42.3045 17.2363 42.3045V43.4751V44.6457C17.8572 44.6457 18.4527 44.8923 18.8918 45.3314L19.7195 44.5036ZM28.307 48.1247L27.4792 47.2969C26.5649 48.2112 25.0826 48.2112 24.1683 47.2969L23.3406 48.1247L22.5128 48.9524C24.3414 50.781 27.3061 50.781 29.1347 48.9524L28.307 48.1247ZM34.4112 43.4751V42.3045C33.1694 42.3045 31.9784 42.7978 31.1003 43.6759L31.928 44.5036L32.7557 45.3314C33.1948 44.8923 33.7903 44.6457 34.4112 44.6457V43.4751ZM43.3814 39.9633H42.2108C42.2108 41.2563 41.1626 42.3045 39.8696 42.3045V43.4751V44.6457C42.4556 44.6457 44.552 42.5493 44.552 39.9633H43.3814ZM44.41 32.0217L43.5822 31.1939C42.7041 32.072 42.2108 33.263 42.2108 34.5049H43.3814H44.552C44.552 33.884 44.7986 33.2885 45.2377 32.8494L44.41 32.0217ZM48.1726 23.2926L47.3448 24.1204C48.2591 25.0347 48.2591 26.517 47.3448 27.4313L48.1726 28.259L49.0003 29.0868C50.8289 27.2582 50.8289 24.2935 49.0003 22.4649L48.1726 23.2926ZM43.3814 17.0468H42.2108C42.2108 18.2886 42.7041 19.4796 43.5822 20.3577L44.41 19.53L45.2377 18.7023C44.7986 18.2632 44.552 17.6677 44.552 17.0468H43.3814ZM39.8696 8.35689V9.52749C41.1626 9.52749 42.2108 10.5757 42.2108 11.8687H43.3814H44.552C44.552 9.28267 42.4556 7.18629 39.8696 7.18629V8.35689ZM34.6915 8.35689V7.18629C34.0706 7.18629 33.4751 6.93963 33.036 6.50057L32.2083 7.32831L31.3805 8.15605C32.2586 9.03416 33.4496 9.52749 34.6915 9.52749V8.35689Z" fill="white" mask="url(#path-2-inside-1_9876_1176)"/>
<g clip-path="url(#clip0_9876_1176)">
<path d="M27.9563 20.8843C27.7812 21.063 27.6831 21.3032 27.6831 21.5535C27.6831 21.8037 27.7812 22.0439 27.9563 22.2226L29.4858 23.7521C29.6645 23.9273 29.9048 24.0254 30.155 24.0254C30.4052 24.0254 30.6455 23.9273 30.8242 23.7521L34.4281 20.1482C34.9087 21.2105 35.0543 22.394 34.8453 23.541C34.6363 24.6881 34.0827 25.7442 33.2583 26.5686C32.4338 27.3931 31.3777 27.9467 30.2306 28.1557C29.0836 28.3647 27.9001 28.2191 26.8379 27.7384L20.2323 34.344C19.852 34.7243 19.3362 34.9379 18.7984 34.9379C18.2605 34.9379 17.7448 34.7243 17.3645 34.344C16.9842 33.9637 16.7705 33.4479 16.7705 32.9101C16.7705 32.3723 16.9842 31.8565 17.3645 31.4762L23.97 24.8706C23.4893 23.8084 23.3438 22.6249 23.5528 21.4778C23.7618 20.3308 24.3154 19.2746 25.1398 18.4502C25.9643 17.6258 27.0204 17.0722 28.1674 16.8632C29.3145 16.6542 30.498 16.7997 31.5602 17.2804L27.9659 20.8747L27.9563 20.8843Z" stroke="white" stroke-width="2.10308" stroke-linecap="round" stroke-linejoin="round"/>
</g>
<defs>
<clipPath id="clip0_9876_1176">
<rect width="20.6133" height="20.6133" fill="white" transform="translate(15.373 15.3728)"/>
</clipPath>
</defs>
</svg>
